<svg xmlns="http://www.w3.org/2000/svg" xmlns:xlink="http://www.w3.org/1999/xlink" width="500" zoomAndPan="magnify" viewBox="0 0 375 187.499995" height="250" preserveAspectRatio="xMidYMid meet" version="1.0"><defs><g/></defs><g fill="#e52687" fill-opacity="1"><g transform="translate(19.198807, 121.684917)"><g><path d="M 46.375 -45.867188 L 41.714844 -45.867188 C 40.28125 -45.867188 39.035156 -45.359375 38.023438 -44.4375 L 28.007812 -35.253906 C 27.730469 -34.976562 27.457031 -34.882812 27.132812 -34.882812 C 26.761719 -34.882812 26.484375 -34.976562 26.253906 -35.253906 L 16.242188 -44.4375 C 15.179688 -45.359375 13.933594 -45.867188 12.550781 -45.867188 L 7.890625 -45.867188 C 7.246094 -45.867188 6.691406 -45.636719 6.230469 -45.175781 C 5.769531 -44.710938 5.539062 -44.160156 5.539062 -43.511719 L 5.539062 -2.351562 C 5.539062 -1.707031 5.769531 -1.152344 6.230469 -0.691406 C 6.691406 -0.230469 7.246094 0 7.890625 0 L 12.320312 0 C 12.964844 0 13.519531 -0.230469 13.980469 -0.691406 C 14.441406 -1.152344 14.671875 -1.707031 14.671875 -2.351562 L 14.671875 -30.546875 C 14.671875 -30.824219 14.71875 -31.054688 14.859375 -31.238281 C 14.996094 -31.421875 15.179688 -31.609375 15.410156 -31.699219 C 15.597656 -31.792969 15.828125 -31.792969 16.105469 -31.792969 C 16.335938 -31.746094 16.566406 -31.652344 16.796875 -31.46875 L 25.515625 -23.347656 C 25.980469 -22.886719 26.484375 -22.703125 27.132812 -22.703125 C 27.730469 -22.703125 28.238281 -22.886719 28.699219 -23.347656 L 37.46875 -31.46875 C 37.652344 -31.652344 37.882812 -31.746094 38.160156 -31.792969 C 38.390625 -31.792969 38.621094 -31.792969 38.851562 -31.699219 C 39.035156 -31.609375 39.222656 -31.421875 39.359375 -31.238281 C 39.5 -31.054688 39.589844 -30.824219 39.589844 -30.546875 L 39.589844 -2.351562 C 39.589844 -1.707031 39.820312 -1.152344 40.28125 -0.691406 C 40.746094 -0.230469 41.296875 0 41.945312 0 L 46.375 0 C 47.019531 0 47.574219 -0.230469 48.035156 -0.691406 C 48.496094 -1.152344 48.726562 -1.707031 48.726562 -2.351562 L 48.726562 -43.511719 C 48.726562 -44.160156 48.496094 -44.710938 48.035156 -45.175781 C 47.574219 -45.636719 47.019531 -45.867188 46.375 -45.867188 Z M 46.375 -45.867188 "/></g></g></g><g fill="#e52687" fill-opacity="1"><g transform="translate(70.689583, 121.684917)"><g><path d="M 38.761719 -2.078125 L 26.484375 -44.574219 C 26.347656 -44.941406 26.117188 -45.21875 25.839844 -45.496094 C 25.515625 -45.726562 25.148438 -45.867188 24.777344 -45.867188 L 16.796875 -45.867188 C 16.378906 -45.867188 16.011719 -45.726562 15.734375 -45.496094 C 15.410156 -45.21875 15.179688 -44.941406 15.089844 -44.574219 L 2.816406 -2.078125 C 2.628906 -1.523438 2.722656 -1.0625 3.089844 -0.644531 C 3.414062 -0.183594 3.828125 0 4.382812 0 L 10.429688 0 C 10.796875 0 11.167969 -0.09375 11.488281 -0.324219 C 11.765625 -0.554688 11.996094 -0.875 12.136719 -1.292969 L 14.121094 -8.304688 C 14.210938 -8.675781 14.441406 -8.953125 14.765625 -9.183594 C 15.042969 -9.414062 15.410156 -9.550781 15.828125 -9.550781 L 25.746094 -9.550781 C 26.117188 -9.550781 26.484375 -9.414062 26.808594 -9.183594 C 27.085938 -8.953125 27.316406 -8.675781 27.457031 -8.304688 L 29.484375 -1.292969 C 29.578125 -0.875 29.808594 -0.554688 30.132812 -0.324219 C 30.410156 -0.09375 30.777344 0 31.191406 0 L 37.191406 0 C 37.746094 0 38.160156 -0.183594 38.484375 -0.644531 C 38.804688 -1.0625 38.898438 -1.523438 38.761719 -2.078125 Z M 23.808594 -18.6875 L 17.765625 -18.6875 C 17.582031 -18.6875 17.488281 -18.734375 17.394531 -18.871094 C 17.304688 -18.964844 17.257812 -19.101562 17.304688 -19.289062 L 20.347656 -29.761719 C 20.394531 -29.992188 20.535156 -30.132812 20.808594 -30.132812 C 21.042969 -30.132812 21.179688 -29.992188 21.273438 -29.761719 L 24.269531 -19.289062 C 24.316406 -19.101562 24.269531 -18.964844 24.179688 -18.871094 C 24.085938 -18.734375 23.949219 -18.6875 23.808594 -18.6875 Z M 23.808594 -18.6875 "/></g></g></g><g fill="#e52687" fill-opacity="1"><g transform="translate(109.538204, 121.684917)"><g><path d="M 34.515625 -45.867188 L 8.257812 -45.867188 C 7.476562 -45.867188 6.828125 -45.589844 6.320312 -45.035156 C 5.769531 -44.480469 5.539062 -43.882812 5.539062 -43.144531 L 5.539062 -39.453125 C 5.539062 -38.667969 5.769531 -38.023438 6.320312 -37.515625 C 6.828125 -36.960938 7.476562 -36.730469 8.257812 -36.730469 L 15.597656 -36.730469 C 15.917969 -36.730469 16.195312 -36.589844 16.472656 -36.359375 C 16.703125 -36.082031 16.84375 -35.808594 16.84375 -35.484375 L 16.84375 -2.722656 C 16.84375 -1.984375 17.074219 -1.339844 17.625 -0.785156 C 18.179688 -0.230469 18.828125 0 19.566406 0 L 23.257812 0 C 23.996094 0 24.640625 -0.230469 25.195312 -0.785156 C 25.703125 -1.339844 25.980469 -1.984375 25.980469 -2.722656 L 25.980469 -35.484375 C 25.980469 -35.808594 26.070312 -36.082031 26.347656 -36.359375 C 26.578125 -36.589844 26.855469 -36.730469 27.222656 -36.730469 L 34.515625 -36.730469 C 35.253906 -36.730469 35.898438 -36.960938 36.453125 -37.515625 C 37.007812 -38.023438 37.285156 -38.667969 37.285156 -39.453125 L 37.285156 -43.144531 C 37.285156 -43.882812 37.007812 -44.480469 36.453125 -45.035156 C 35.898438 -45.589844 35.253906 -45.867188 34.515625 -45.867188 Z M 34.515625 -45.867188 "/></g></g></g><g fill="#e52687" fill-opacity="1"><g transform="translate(149.586452, 121.684917)"><g><path d="M 24.457031 -36.683594 L 29.761719 -36.683594 C 30.59375 -36.683594 31.332031 -36.960938 31.976562 -37.605469 C 32.578125 -38.207031 32.898438 -38.945312 32.898438 -39.867188 L 32.898438 -42.683594 C 32.898438 -43.558594 32.578125 -44.296875 31.976562 -44.941406 C 31.332031 -45.542969 30.59375 -45.867188 29.761719 -45.867188 L 24.457031 -45.867188 C 21.085938 -45.867188 18.042969 -45.21875 15.273438 -43.972656 C 12.503906 -42.683594 10.152344 -40.835938 8.121094 -38.4375 C 6.367188 -36.359375 5.03125 -34.007812 4.105469 -31.332031 C 3.183594 -28.65625 2.769531 -25.886719 2.769531 -22.933594 C 2.769531 -20.070312 3.230469 -17.257812 4.152344 -14.535156 C 5.074219 -11.765625 6.414062 -9.320312 8.257812 -7.199219 C 10.105469 -5.03125 12.367188 -3.277344 15.042969 -1.984375 C 17.71875 -0.644531 20.855469 0 24.457031 0 L 29.761719 0 C 30.59375 0 31.332031 -0.277344 31.976562 -0.921875 C 32.578125 -1.523438 32.898438 -2.261719 32.898438 -3.136719 L 32.898438 -5.953125 C 32.898438 -6.828125 32.578125 -7.566406 31.976562 -8.214844 C 31.332031 -8.8125 30.59375 -9.136719 29.761719 -9.136719 L 24.457031 -9.136719 C 21.964844 -9.136719 19.886719 -9.597656 18.273438 -10.566406 C 16.65625 -11.488281 15.367188 -12.6875 14.441406 -14.121094 C 13.519531 -15.503906 12.828125 -17.027344 12.457031 -18.59375 C 12.089844 -20.164062 11.90625 -21.640625 11.90625 -22.933594 C 11.90625 -24.777344 12.183594 -26.53125 12.734375 -28.195312 C 13.289062 -29.855469 14.121094 -31.332031 15.136719 -32.625 C 17.351562 -35.300781 20.488281 -36.683594 24.457031 -36.683594 Z M 24.457031 -36.683594 "/></g></g></g><g fill="#e52687" fill-opacity="1"><g transform="translate(185.297592, 121.684917)"><g><path d="M 35.808594 -45.867188 L 30.269531 -45.867188 C 29.761719 -45.867188 29.347656 -45.679688 28.976562 -45.3125 C 28.609375 -44.941406 28.46875 -44.527344 28.46875 -44.066406 L 28.46875 -29.164062 C 28.46875 -28.699219 28.285156 -28.285156 27.960938 -27.960938 C 27.640625 -27.640625 27.269531 -27.5 26.808594 -27.5 L 16.335938 -27.5 C 15.875 -27.5 15.457031 -27.640625 15.136719 -27.960938 C 14.8125 -28.285156 14.671875 -28.699219 14.671875 -29.164062 L 14.671875 -44.066406 C 14.671875 -44.527344 14.488281 -44.941406 14.164062 -45.3125 C 13.796875 -45.679688 13.382812 -45.867188 12.875 -45.867188 L 7.335938 -45.867188 C 6.828125 -45.867188 6.414062 -45.679688 6.042969 -45.3125 C 5.675781 -44.941406 5.539062 -44.527344 5.539062 -44.066406 L 5.539062 -1.800781 C 5.539062 -1.292969 5.675781 -0.875 6.042969 -0.507812 C 6.414062 -0.136719 6.828125 0 7.335938 0 L 12.875 0 C 13.382812 0 13.796875 -0.136719 14.164062 -0.507812 C 14.488281 -0.875 14.671875 -1.292969 14.671875 -1.800781 L 14.671875 -16.703125 C 14.671875 -17.164062 14.8125 -17.535156 15.136719 -17.855469 C 15.457031 -18.179688 15.875 -18.363281 16.335938 -18.363281 L 26.808594 -18.363281 C 27.269531 -18.363281 27.640625 -18.179688 27.960938 -17.855469 C 28.285156 -17.535156 28.46875 -17.164062 28.46875 -16.703125 L 28.46875 -1.800781 C 28.46875 -1.292969 28.609375 -0.875 28.976562 -0.507812 C 29.347656 -0.136719 29.761719 0 30.269531 0 L 35.808594 0 C 36.316406 0 36.730469 -0.136719 37.097656 -0.507812 C 37.421875 -0.875 37.605469 -1.292969 37.605469 -1.800781 L 37.605469 -44.066406 C 37.605469 -44.527344 37.421875 -44.941406 37.097656 -45.3125 C 36.730469 -45.679688 36.316406 -45.867188 35.808594 -45.867188 Z M 35.808594 -45.867188 "/></g></g></g><g fill="#5e17eb" fill-opacity="1"><g transform="translate(225.713387, 121.684917)"><g><path d="M 35.761719 -45.820312 L 30.59375 -45.820312 C 30.039062 -45.820312 29.53125 -45.589844 29.164062 -45.21875 C 28.792969 -44.851562 28.609375 -44.390625 28.609375 -43.835938 L 28.609375 -14.902344 C 28.609375 -13.472656 28.238281 -12.367188 27.59375 -11.628906 C 26.949219 -10.84375 26.210938 -10.289062 25.378906 -9.921875 C 24.546875 -9.550781 23.765625 -9.320312 23.027344 -9.230469 C 22.285156 -9.136719 21.824219 -9.136719 21.640625 -9.136719 C 21.457031 -9.136719 20.996094 -9.136719 20.257812 -9.230469 C 19.519531 -9.320312 18.734375 -9.550781 17.902344 -9.921875 C 17.074219 -10.289062 16.289062 -10.84375 15.640625 -11.628906 C 14.996094 -12.367188 14.671875 -13.472656 14.671875 -14.902344 L 14.671875 -43.835938 C 14.671875 -44.390625 14.441406 -44.851562 14.074219 -45.21875 C 13.703125 -45.589844 13.242188 -45.820312 12.6875 -45.820312 L 7.519531 -45.820312 C 6.96875 -45.820312 6.460938 -45.589844 6.089844 -45.21875 C 5.722656 -44.851562 5.539062 -44.390625 5.539062 -43.835938 L 5.539062 -14.902344 C 5.539062 -12.597656 5.953125 -10.472656 6.875 -8.535156 C 7.796875 -6.597656 9.089844 -4.9375 10.84375 -3.554688 C 12.320312 -2.351562 13.980469 -1.476562 15.828125 -0.875 C 17.671875 -0.230469 19.609375 0.046875 21.640625 0.046875 C 23.671875 0.046875 25.609375 -0.230469 27.457031 -0.875 C 29.300781 -1.476562 30.960938 -2.351562 32.4375 -3.554688 C 34.144531 -4.9375 35.4375 -6.597656 36.359375 -8.535156 C 37.285156 -10.472656 37.746094 -12.597656 37.746094 -14.902344 L 37.746094 -43.835938 C 37.746094 -44.390625 37.515625 -44.851562 37.144531 -45.21875 C 36.777344 -45.589844 36.316406 -45.820312 35.761719 -45.820312 Z M 35.761719 -45.820312 "/></g></g></g><g fill="#5e17eb" fill-opacity="1"><g transform="translate(266.269156, 121.684917)"><g><path d="M 38.761719 -2.078125 L 26.484375 -44.574219 C 26.347656 -44.941406 26.117188 -45.21875 25.839844 -45.496094 C 25.515625 -45.726562 25.148438 -45.867188 24.777344 -45.867188 L 16.796875 -45.867188 C 16.378906 -45.867188 16.011719 -45.726562 15.734375 -45.496094 C 15.410156 -45.21875 15.179688 -44.941406 15.089844 -44.574219 L 2.816406 -2.078125 C 2.628906 -1.523438 2.722656 -1.0625 3.089844 -0.644531 C 3.414062 -0.183594 3.828125 0 4.382812 0 L 10.429688 0 C 10.796875 0 11.167969 -0.09375 11.488281 -0.324219 C 11.765625 -0.554688 11.996094 -0.875 12.136719 -1.292969 L 14.121094 -8.304688 C 14.210938 -8.675781 14.441406 -8.953125 14.765625 -9.183594 C 15.042969 -9.414062 15.410156 -9.550781 15.828125 -9.550781 L 25.746094 -9.550781 C 26.117188 -9.550781 26.484375 -9.414062 26.808594 -9.183594 C 27.085938 -8.953125 27.316406 -8.675781 27.457031 -8.304688 L 29.484375 -1.292969 C 29.578125 -0.875 29.808594 -0.554688 30.132812 -0.324219 C 30.410156 -0.09375 30.777344 0 31.191406 0 L 37.191406 0 C 37.746094 0 38.160156 -0.183594 38.484375 -0.644531 C 38.804688 -1.0625 38.898438 -1.523438 38.761719 -2.078125 Z M 23.808594 -18.6875 L 17.765625 -18.6875 C 17.582031 -18.6875 17.488281 -18.734375 17.394531 -18.871094 C 17.304688 -18.964844 17.257812 -19.101562 17.304688 -19.289062 L 20.347656 -29.761719 C 20.394531 -29.992188 20.535156 -30.132812 20.808594 -30.132812 C 21.042969 -30.132812 21.179688 -29.992188 21.273438 -29.761719 L 24.269531 -19.289062 C 24.316406 -19.101562 24.269531 -18.964844 24.179688 -18.871094 C 24.085938 -18.734375 23.949219 -18.6875 23.808594 -18.6875 Z M 23.808594 -18.6875 "/></g></g></g><g fill="#5e17eb" fill-opacity="1"><g transform="translate(305.117777, 121.684917)"><g><path d="M 38.761719 -2.078125 L 26.484375 -44.574219 C 26.347656 -44.941406 26.117188 -45.21875 25.839844 -45.496094 C 25.515625 -45.726562 25.148438 -45.867188 24.777344 -45.867188 L 16.796875 -45.867188 C 16.378906 -45.867188 16.011719 -45.726562 15.734375 -45.496094 C 15.410156 -45.21875 15.179688 -44.941406 15.089844 -44.574219 L 2.816406 -2.078125 C 2.628906 -1.523438 2.722656 -1.0625 3.089844 -0.644531 C 3.414062 -0.183594 3.828125 0 4.382812 0 L 10.429688 0 C 10.796875 0 11.167969 -0.09375 11.488281 -0.324219 C 11.765625 -0.554688 11.996094 -0.875 12.136719 -1.292969 L 14.121094 -8.304688 C 14.210938 -8.675781 14.441406 -8.953125 14.765625 -9.183594 C 15.042969 -9.414062 15.410156 -9.550781 15.828125 -9.550781 L 25.746094 -9.550781 C 26.117188 -9.550781 26.484375 -9.414062 26.808594 -9.183594 C 27.085938 -8.953125 27.316406 -8.675781 27.457031 -8.304688 L 29.484375 -1.292969 C 29.578125 -0.875 29.808594 -0.554688 30.132812 -0.324219 C 30.410156 -0.09375 30.777344 0 31.191406 0 L 37.191406 0 C 37.746094 0 38.160156 -0.183594 38.484375 -0.644531 C 38.804688 -1.0625 38.898438 -1.523438 38.761719 -2.078125 Z M 23.808594 -18.6875 L 17.765625 -18.6875 C 17.582031 -18.6875 17.488281 -18.734375 17.394531 -18.871094 C 17.304688 -18.964844 17.257812 -19.101562 17.304688 -19.289062 L 20.347656 -29.761719 C 20.394531 -29.992188 20.535156 -30.132812 20.808594 -30.132812 C 21.042969 -30.132812 21.179688 -29.992188 21.273438 -29.761719 L 24.269531 -19.289062 C 24.316406 -19.101562 24.269531 -18.964844 24.179688 -18.871094 C 24.085938 -18.734375 23.949219 -18.6875 23.808594 -18.6875 Z M 23.808594 -18.6875 "/></g></g></g></svg>