<svg xmlns="http://www.w3.org/2000/svg" xmlns:xlink="http://www.w3.org/1999/xlink" width="500" zoomAndPan="magnify" viewBox="0 0 375 374.999991" height="500" preserveAspectRatio="xMidYMid meet" version="1.0"><defs><clipPath id="d19476476c"><path d="M 79 115 L 335.714844 115 L 335.714844 349 L 79 349 Z M 79 115 " clip-rule="nonzero"/></clipPath><clipPath id="28fcb3b06f"><path d="M 39.464844 26 L 296 26 L 296 260 L 39.464844 260 Z M 39.464844 26 " clip-rule="nonzero"/></clipPath></defs><g clip-path="url(#d19476476c)"><path fill="#e52687" d="M 189.714844 285.101562 C 199.570312 285.101562 199.570312 300.078125 189.714844 300.078125 L 105.359375 300.078125 C 98.363281 300.078125 91.976562 297.199219 87.339844 292.566406 L 87.328125 292.582031 C 82.703125 287.957031 79.832031 281.570312 79.832031 274.542969 L 79.832031 140.957031 C 79.832031 126.894531 91.304688 115.417969 105.359375 115.417969 L 310.089844 115.417969 C 324.144531 115.417969 335.617188 126.894531 335.617188 140.957031 L 335.617188 274.550781 C 335.617188 288.570312 324.105469 300.085938 310.089844 300.085938 L 274.621094 300.085938 L 274.621094 341.191406 C 274.621094 347.871094 266.515625 351.164062 261.84375 346.484375 L 139.828125 224.425781 C 130.542969 215.136719 125.898438 202.902344 125.898438 190.667969 L 125.925781 190.667969 C 125.925781 164.203125 147.117188 142.996094 173.574219 143.003906 L 173.574219 142.976562 C 186.230469 142.976562 198.160156 147.746094 207.722656 157.3125 C 238.371094 126.652344 289.546875 148.433594 289.546875 190.671875 C 289.546875 214.023438 275.554688 224.492188 260.511719 239.539062 L 228.148438 271.917969 C 221.183594 278.886719 210.59375 268.300781 217.566406 261.332031 L 265.03125 213.847656 C 285.351562 193.519531 271.285156 157.960938 241.871094 157.960938 C 225.765625 157.960938 218.351562 167.867188 207.722656 178.496094 C 197.183594 167.957031 189.734375 157.960938 173.574219 157.960938 L 173.574219 157.933594 C 155.457031 157.933594 140.835938 172.5625 140.835938 190.679688 L 140.863281 190.679688 C 140.863281 199.082031 144.042969 207.480469 150.40625 213.847656 L 166.398438 229.84375 L 166.167969 229.84375 L 166.167969 230.015625 C 168.632812 231.394531 250.25 313.71875 259.640625 323.121094 L 259.640625 292.59375 C 259.640625 288.457031 262.988281 285.109375 267.125 285.109375 L 310.078125 285.109375 C 315.910156 285.109375 320.632812 280.378906 320.632812 274.550781 L 320.632812 140.957031 C 320.632812 135.160156 315.863281 130.394531 310.078125 130.394531 L 105.359375 130.394531 C 99.566406 130.394531 94.804688 135.164062 94.804688 140.957031 L 94.804688 274.550781 C 94.804688 277.441406 95.992188 280.085938 97.910156 282 L 97.898438 282.015625 C 99.808594 283.925781 102.4375 285.109375 105.359375 285.109375 L 189.714844 285.109375 Z M 189.714844 285.101562 " fill-opacity="1" fill-rule="nonzero"/></g><g clip-path="url(#28fcb3b06f)"><path fill="#5e17eb" d="M 259.570312 208.371094 C 255.742188 212.199219 249.929688 206.382812 253.753906 202.554688 C 264.195312 192.113281 256.933594 173.902344 241.871094 173.902344 C 236.453125 173.902344 236.453125 165.679688 241.871094 165.679688 C 264.148438 165.679688 275.214844 192.722656 259.570312 208.371094 Z M 156.585938 90.203125 C 154.265625 90.203125 152.183594 89.144531 150.816406 87.484375 L 115.542969 52.199219 L 115.542969 82.71875 C 115.542969 86.855469 112.195312 90.203125 108.0625 90.203125 L 65.101562 90.203125 C 62.203125 90.203125 59.570312 91.394531 57.652344 93.3125 L 57.621094 93.3125 C 55.722656 95.210938 54.539062 97.851562 54.539062 100.765625 L 54.539062 234.351562 C 54.539062 237.25 55.730469 239.886719 57.644531 241.804688 L 57.632812 241.816406 C 61.183594 245.355469 64.742188 244.910156 69.230469 244.910156 C 79.085938 244.910156 79.085938 259.886719 69.230469 259.886719 C 50.589844 259.886719 48.28125 252.390625 47.0625 252.390625 C 42.445312 247.777344 39.574219 241.390625 39.574219 234.359375 L 39.574219 100.769531 C 39.574219 93.769531 42.453125 87.382812 47.082031 82.746094 L 47.070312 82.734375 C 51.695312 78.105469 58.078125 75.234375 65.109375 75.234375 L 100.574219 75.234375 L 100.574219 34.121094 C 100.574219 27.441406 108.675781 24.148438 113.351562 28.828125 L 159.738281 75.230469 L 269.839844 75.230469 C 281.296875 75.230469 287.695312 82.726562 287.871094 82.726562 C 294.75 89.609375 295.367188 96.160156 295.367188 104.917969 C 295.367188 114.777344 280.394531 114.777344 280.394531 104.917969 C 280.394531 100.425781 280.847656 96.878906 277.289062 93.320312 L 277.300781 93.304688 C 275.382812 91.394531 272.742188 90.210938 269.839844 90.210938 L 156.585938 90.210938 Z M 156.585938 90.203125 " fill-opacity="1" fill-rule="nonzero"/></g></svg>