<svg xmlns="http://www.w3.org/2000/svg" xmlns:xlink="http://www.w3.org/1999/xlink" width="500" zoomAndPan="magnify" viewBox="0 0 375 374.999991" height="500" preserveAspectRatio="xMidYMid meet" version="1.0"><defs><g/><clipPath id="ae1820a51a"><path d="M 45 162 L 134.835938 162 L 134.835938 244 L 45 244 Z M 45 162 " clip-rule="nonzero"/></clipPath><clipPath id="58c54f3522"><path d="M 31.335938 131 L 121 131 L 121 213 L 31.335938 213 Z M 31.335938 131 " clip-rule="nonzero"/></clipPath></defs><rect x="-37.5" width="450" fill="#ffffff" y="-37.499999" height="449.999989" fill-opacity="1"/><rect x="-37.5" width="450" fill="#ffffff" y="-37.499999" height="449.999989" fill-opacity="1"/><g clip-path="url(#ae1820a51a)"><path fill="#e52687" d="M 83.828125 221.554688 C 87.273438 221.554688 87.273438 226.773438 83.828125 226.773438 L 54.355469 226.773438 C 51.910156 226.773438 49.679688 225.769531 48.0625 224.15625 L 48.054688 224.160156 C 46.441406 222.546875 45.4375 220.320312 45.4375 217.871094 L 45.4375 171.300781 C 45.4375 166.398438 49.445312 162.398438 54.355469 162.398438 L 125.882812 162.398438 C 130.792969 162.398438 134.800781 166.398438 134.800781 171.300781 L 134.800781 217.875 C 134.800781 222.761719 130.78125 226.777344 125.882812 226.777344 L 113.492188 226.777344 L 113.492188 241.109375 C 113.492188 243.4375 110.660156 244.585938 109.027344 242.953125 L 66.398438 200.402344 C 63.15625 197.160156 61.53125 192.898438 61.53125 188.632812 L 61.542969 188.632812 C 61.542969 179.40625 68.945312 172.011719 78.1875 172.015625 L 78.1875 172.003906 C 82.609375 172.003906 86.777344 173.667969 90.117188 177.003906 C 100.828125 166.316406 118.707031 173.90625 118.707031 188.632812 C 118.707031 196.773438 113.816406 200.421875 108.5625 205.667969 L 97.253906 216.957031 C 94.820312 219.386719 91.121094 215.695312 93.558594 213.265625 L 110.140625 196.710938 C 117.242188 189.625 112.324219 177.230469 102.050781 177.230469 C 96.421875 177.230469 93.832031 180.683594 90.117188 184.390625 C 86.4375 180.714844 83.835938 177.230469 78.1875 177.230469 L 78.1875 177.21875 C 71.859375 177.21875 66.75 182.320312 66.75 188.636719 L 66.761719 188.636719 C 66.761719 191.566406 67.871094 194.492188 70.09375 196.710938 L 75.679688 202.289062 L 75.601562 202.289062 L 75.601562 202.347656 C 76.464844 202.828125 104.976562 231.53125 108.257812 234.808594 L 108.257812 224.164062 C 108.257812 222.722656 109.429688 221.554688 110.871094 221.554688 L 125.878906 221.554688 C 127.917969 221.554688 129.566406 219.90625 129.566406 217.875 L 129.566406 171.300781 C 129.566406 169.28125 127.902344 167.621094 125.878906 167.621094 L 54.355469 167.621094 C 52.332031 167.621094 50.667969 169.28125 50.667969 171.300781 L 50.667969 217.875 C 50.667969 218.882812 51.085938 219.804688 51.753906 220.472656 L 51.75 220.476562 C 52.417969 221.144531 53.335938 221.554688 54.355469 221.554688 Z M 83.828125 221.554688 " fill-opacity="1" fill-rule="nonzero"/></g><g clip-path="url(#58c54f3522)"><path fill="#5e17eb" d="M 108.234375 194.804688 C 106.894531 196.136719 104.863281 194.109375 106.203125 192.777344 C 109.847656 189.136719 107.3125 182.789062 102.050781 182.789062 C 100.15625 182.789062 100.15625 179.921875 102.050781 179.921875 C 109.832031 179.921875 113.699219 189.347656 108.234375 194.804688 Z M 72.253906 153.609375 C 71.441406 153.609375 70.714844 153.238281 70.238281 152.660156 L 57.914062 140.359375 L 57.914062 151 C 57.914062 152.441406 56.746094 153.609375 55.300781 153.609375 L 40.292969 153.609375 C 39.28125 153.609375 38.359375 154.023438 37.6875 154.691406 L 37.675781 154.691406 C 37.015625 155.351562 36.601562 156.273438 36.601562 157.289062 L 36.601562 203.859375 C 36.601562 204.871094 37.015625 205.789062 37.6875 206.457031 L 37.683594 206.464844 C 38.921875 207.699219 40.164062 207.542969 41.734375 207.542969 C 45.175781 207.542969 45.175781 212.761719 41.734375 212.761719 C 35.222656 212.761719 34.414062 210.148438 33.988281 210.148438 C 32.375 208.542969 31.371094 206.316406 31.371094 203.863281 L 31.371094 157.292969 C 31.371094 154.851562 32.378906 152.625 33.996094 151.007812 L 33.992188 151.003906 C 35.605469 149.390625 37.835938 148.390625 40.292969 148.390625 L 52.683594 148.390625 L 52.683594 134.054688 C 52.683594 131.726562 55.515625 130.578125 57.148438 132.210938 L 73.355469 148.386719 L 111.820312 148.386719 C 115.824219 148.386719 118.058594 151 118.121094 151 C 120.523438 153.398438 120.738281 155.683594 120.738281 158.738281 C 120.738281 162.175781 115.507812 162.175781 115.507812 158.738281 C 115.507812 157.171875 115.667969 155.933594 114.421875 154.695312 L 114.429688 154.6875 C 113.757812 154.023438 112.835938 153.609375 111.820312 153.609375 Z M 72.253906 153.609375 " fill-opacity="1" fill-rule="nonzero"/></g><g fill="#e52687" fill-opacity="1"><g transform="translate(157.602498, 203.944675)"><g><path d="M 27.511719 -27.210938 L 24.75 -27.210938 C 23.898438 -27.210938 23.160156 -26.910156 22.558594 -26.363281 L 16.617188 -20.914062 C 16.453125 -20.75 16.289062 -20.695312 16.097656 -20.695312 C 15.878906 -20.695312 15.714844 -20.75 15.578125 -20.914062 L 9.636719 -26.363281 C 9.007812 -26.910156 8.269531 -27.210938 7.445312 -27.210938 L 4.679688 -27.210938 C 4.296875 -27.210938 3.96875 -27.074219 3.695312 -26.800781 C 3.421875 -26.527344 3.285156 -26.199219 3.285156 -25.816406 L 3.285156 -1.394531 C 3.285156 -1.011719 3.421875 -0.683594 3.695312 -0.410156 C 3.96875 -0.136719 4.296875 0 4.679688 0 L 7.308594 0 C 7.691406 0 8.019531 -0.136719 8.296875 -0.410156 C 8.570312 -0.683594 8.707031 -1.011719 8.707031 -1.394531 L 8.707031 -18.125 C 8.707031 -18.289062 8.734375 -18.425781 8.816406 -18.535156 C 8.898438 -18.644531 9.007812 -18.753906 9.144531 -18.808594 C 9.253906 -18.863281 9.390625 -18.863281 9.554688 -18.863281 C 9.691406 -18.835938 9.828125 -18.78125 9.964844 -18.671875 L 15.140625 -13.851562 C 15.414062 -13.578125 15.714844 -13.46875 16.097656 -13.46875 C 16.453125 -13.46875 16.753906 -13.578125 17.027344 -13.851562 L 22.230469 -18.671875 C 22.339844 -18.78125 22.476562 -18.835938 22.640625 -18.863281 C 22.777344 -18.863281 22.914062 -18.863281 23.050781 -18.808594 C 23.160156 -18.753906 23.269531 -18.644531 23.351562 -18.535156 C 23.433594 -18.425781 23.488281 -18.289062 23.488281 -18.125 L 23.488281 -1.394531 C 23.488281 -1.011719 23.625 -0.683594 23.898438 -0.410156 C 24.171875 -0.136719 24.5 0 24.886719 0 L 27.511719 0 C 27.898438 0 28.226562 -0.136719 28.5 -0.410156 C 28.773438 -0.683594 28.910156 -1.011719 28.910156 -1.394531 L 28.910156 -25.816406 C 28.910156 -26.199219 28.773438 -26.527344 28.5 -26.800781 C 28.226562 -27.074219 27.898438 -27.210938 27.511719 -27.210938 Z M 27.511719 -27.210938 "/></g></g></g><g fill="#e52687" fill-opacity="1"><g transform="translate(188.148037, 203.944675)"><g><path d="M 22.996094 -1.230469 L 15.714844 -26.445312 C 15.632812 -26.664062 15.496094 -26.828125 15.332031 -26.992188 C 15.140625 -27.128906 14.921875 -27.210938 14.699219 -27.210938 L 9.964844 -27.210938 C 9.71875 -27.210938 9.5 -27.128906 9.335938 -26.992188 C 9.144531 -26.828125 9.007812 -26.664062 8.953125 -26.445312 L 1.671875 -1.230469 C 1.558594 -0.902344 1.613281 -0.628906 1.835938 -0.382812 C 2.027344 -0.109375 2.273438 0 2.601562 0 L 6.1875 0 C 6.40625 0 6.625 -0.0546875 6.816406 -0.191406 C 6.980469 -0.328125 7.117188 -0.519531 7.199219 -0.765625 L 8.378906 -4.929688 C 8.433594 -5.148438 8.570312 -5.3125 8.761719 -5.449219 C 8.925781 -5.585938 9.144531 -5.667969 9.390625 -5.667969 L 15.277344 -5.667969 C 15.496094 -5.667969 15.714844 -5.585938 15.90625 -5.449219 C 16.070312 -5.3125 16.207031 -5.148438 16.289062 -4.929688 L 17.492188 -0.765625 C 17.546875 -0.519531 17.683594 -0.328125 17.875 -0.191406 C 18.042969 -0.0546875 18.261719 0 18.507812 0 L 22.066406 0 C 22.394531 0 22.640625 -0.109375 22.832031 -0.382812 C 23.023438 -0.628906 23.078125 -0.902344 22.996094 -1.230469 Z M 14.125 -11.085938 L 10.539062 -11.085938 C 10.429688 -11.085938 10.375 -11.113281 10.320312 -11.195312 C 10.265625 -11.25 10.238281 -11.332031 10.265625 -11.441406 L 12.074219 -17.65625 C 12.101562 -17.792969 12.183594 -17.875 12.347656 -17.875 C 12.484375 -17.875 12.566406 -17.792969 12.621094 -17.65625 L 14.398438 -11.441406 C 14.425781 -11.332031 14.398438 -11.25 14.34375 -11.195312 C 14.289062 -11.113281 14.207031 -11.085938 14.125 -11.085938 Z M 14.125 -11.085938 "/></g></g></g><g fill="#e52687" fill-opacity="1"><g transform="translate(211.193896, 203.944675)"><g><path d="M 20.476562 -27.210938 L 4.898438 -27.210938 C 4.433594 -27.210938 4.050781 -27.046875 3.75 -26.71875 C 3.421875 -26.390625 3.285156 -26.035156 3.285156 -25.597656 L 3.285156 -23.40625 C 3.285156 -22.941406 3.421875 -22.558594 3.75 -22.257812 C 4.050781 -21.929688 4.433594 -21.792969 4.898438 -21.792969 L 9.253906 -21.792969 C 9.445312 -21.792969 9.609375 -21.710938 9.773438 -21.574219 C 9.910156 -21.410156 9.992188 -21.242188 9.992188 -21.050781 L 9.992188 -1.613281 C 9.992188 -1.175781 10.128906 -0.792969 10.457031 -0.464844 C 10.785156 -0.136719 11.167969 0 11.609375 0 L 13.796875 0 C 14.234375 0 14.617188 -0.136719 14.949219 -0.464844 C 15.25 -0.792969 15.414062 -1.175781 15.414062 -1.613281 L 15.414062 -21.050781 C 15.414062 -21.242188 15.46875 -21.410156 15.632812 -21.574219 C 15.769531 -21.710938 15.933594 -21.792969 16.152344 -21.792969 L 20.476562 -21.792969 C 20.914062 -21.792969 21.300781 -21.929688 21.628906 -22.257812 C 21.957031 -22.558594 22.121094 -22.941406 22.121094 -23.40625 L 22.121094 -25.597656 C 22.121094 -26.035156 21.957031 -26.390625 21.628906 -26.71875 C 21.300781 -27.046875 20.914062 -27.210938 20.476562 -27.210938 Z M 20.476562 -27.210938 "/></g></g></g><g fill="#e52687" fill-opacity="1"><g transform="translate(234.951405, 203.944675)"><g><path d="M 14.507812 -21.765625 L 17.65625 -21.765625 C 18.152344 -21.765625 18.589844 -21.929688 18.972656 -22.3125 C 19.328125 -22.667969 19.519531 -23.105469 19.519531 -23.652344 L 19.519531 -25.324219 C 19.519531 -25.84375 19.328125 -26.28125 18.972656 -26.664062 C 18.589844 -27.019531 18.152344 -27.210938 17.65625 -27.210938 L 14.507812 -27.210938 C 12.511719 -27.210938 10.703125 -26.828125 9.0625 -26.089844 C 7.417969 -25.324219 6.023438 -24.226562 4.816406 -22.804688 C 3.777344 -21.574219 2.984375 -20.175781 2.4375 -18.589844 C 1.890625 -17 1.644531 -15.359375 1.644531 -13.605469 C 1.644531 -11.910156 1.917969 -10.238281 2.464844 -8.625 C 3.011719 -6.980469 3.804688 -5.53125 4.898438 -4.269531 C 5.996094 -2.984375 7.335938 -1.945312 8.925781 -1.175781 C 10.511719 -0.382812 12.375 0 14.507812 0 L 17.65625 0 C 18.152344 0 18.589844 -0.164062 18.972656 -0.546875 C 19.328125 -0.902344 19.519531 -1.339844 19.519531 -1.863281 L 19.519531 -3.53125 C 19.519531 -4.050781 19.328125 -4.488281 18.972656 -4.871094 C 18.589844 -5.230469 18.152344 -5.421875 17.65625 -5.421875 L 14.507812 -5.421875 C 13.03125 -5.421875 11.800781 -5.695312 10.839844 -6.269531 C 9.882812 -6.816406 9.117188 -7.527344 8.570312 -8.378906 C 8.019531 -9.199219 7.609375 -10.101562 7.390625 -11.03125 C 7.171875 -11.964844 7.0625 -12.839844 7.0625 -13.605469 C 7.0625 -14.699219 7.226562 -15.742188 7.554688 -16.726562 C 7.882812 -17.710938 8.378906 -18.589844 8.980469 -19.355469 C 10.292969 -20.941406 12.15625 -21.765625 14.507812 -21.765625 Z M 14.507812 -21.765625 "/></g></g></g><g fill="#e52687" fill-opacity="1"><g transform="translate(256.136029, 203.944675)"><g><path d="M 21.242188 -27.210938 L 17.957031 -27.210938 C 17.65625 -27.210938 17.410156 -27.101562 17.191406 -26.882812 C 16.972656 -26.664062 16.890625 -26.417969 16.890625 -26.144531 L 16.890625 -17.300781 C 16.890625 -17.027344 16.78125 -16.78125 16.589844 -16.589844 C 16.398438 -16.398438 16.179688 -16.316406 15.90625 -16.316406 L 9.691406 -16.316406 C 9.417969 -16.316406 9.171875 -16.398438 8.980469 -16.589844 C 8.789062 -16.78125 8.707031 -17.027344 8.707031 -17.300781 L 8.707031 -26.144531 C 8.707031 -26.417969 8.597656 -26.664062 8.40625 -26.882812 C 8.1875 -27.101562 7.9375 -27.210938 7.636719 -27.210938 L 4.351562 -27.210938 C 4.050781 -27.210938 3.804688 -27.101562 3.585938 -26.882812 C 3.367188 -26.664062 3.285156 -26.417969 3.285156 -26.144531 L 3.285156 -1.066406 C 3.285156 -0.765625 3.367188 -0.519531 3.585938 -0.300781 C 3.804688 -0.0820312 4.050781 0 4.351562 0 L 7.636719 0 C 7.9375 0 8.1875 -0.0820312 8.40625 -0.300781 C 8.597656 -0.519531 8.707031 -0.765625 8.707031 -1.066406 L 8.707031 -9.910156 C 8.707031 -10.183594 8.789062 -10.402344 8.980469 -10.59375 C 9.171875 -10.785156 9.417969 -10.894531 9.691406 -10.894531 L 15.90625 -10.894531 C 16.179688 -10.894531 16.398438 -10.785156 16.589844 -10.59375 C 16.78125 -10.402344 16.890625 -10.183594 16.890625 -9.910156 L 16.890625 -1.066406 C 16.890625 -0.765625 16.972656 -0.519531 17.191406 -0.300781 C 17.410156 -0.0820312 17.65625 0 17.957031 0 L 21.242188 0 C 21.546875 0 21.792969 -0.0820312 22.011719 -0.300781 C 22.203125 -0.519531 22.3125 -0.765625 22.3125 -1.066406 L 22.3125 -26.144531 C 22.3125 -26.417969 22.203125 -26.664062 22.011719 -26.882812 C 21.792969 -27.101562 21.546875 -27.210938 21.242188 -27.210938 Z M 21.242188 -27.210938 "/></g></g></g><g fill="#5e17eb" fill-opacity="1"><g transform="translate(280.105484, 203.944675)"><g><path d="M 21.214844 -27.183594 L 18.152344 -27.183594 C 17.820312 -27.183594 17.519531 -27.046875 17.300781 -26.828125 C 17.082031 -26.609375 16.972656 -26.335938 16.972656 -26.007812 L 16.972656 -8.84375 C 16.972656 -7.992188 16.753906 -7.335938 16.371094 -6.898438 C 15.988281 -6.433594 15.550781 -6.105469 15.058594 -5.886719 C 14.5625 -5.667969 14.097656 -5.53125 13.660156 -5.476562 C 13.222656 -5.421875 12.949219 -5.421875 12.839844 -5.421875 C 12.730469 -5.421875 12.457031 -5.421875 12.019531 -5.476562 C 11.582031 -5.53125 11.113281 -5.667969 10.621094 -5.886719 C 10.128906 -6.105469 9.664062 -6.433594 9.28125 -6.898438 C 8.898438 -7.335938 8.707031 -7.992188 8.707031 -8.84375 L 8.707031 -26.007812 C 8.707031 -26.335938 8.570312 -26.609375 8.351562 -26.828125 C 8.128906 -27.046875 7.855469 -27.183594 7.527344 -27.183594 L 4.460938 -27.183594 C 4.132812 -27.183594 3.832031 -27.046875 3.613281 -26.828125 C 3.394531 -26.609375 3.285156 -26.335938 3.285156 -26.007812 L 3.285156 -8.84375 C 3.285156 -7.472656 3.53125 -6.214844 4.078125 -5.066406 C 4.625 -3.914062 5.394531 -2.929688 6.433594 -2.109375 C 7.308594 -1.394531 8.296875 -0.875 9.390625 -0.519531 C 10.484375 -0.136719 11.636719 0.0273438 12.839844 0.0273438 C 14.042969 0.0273438 15.195312 -0.136719 16.289062 -0.519531 C 17.382812 -0.875 18.371094 -1.394531 19.246094 -2.109375 C 20.257812 -2.929688 21.023438 -3.914062 21.574219 -5.066406 C 22.121094 -6.214844 22.394531 -7.472656 22.394531 -8.84375 L 22.394531 -26.007812 C 22.394531 -26.335938 22.257812 -26.609375 22.039062 -26.828125 C 21.820312 -27.046875 21.546875 -27.183594 21.214844 -27.183594 Z M 21.214844 -27.183594 "/></g></g></g><g fill="#5e17eb" fill-opacity="1"><g transform="translate(304.16408, 203.944675)"><g><path d="M 22.996094 -1.230469 L 15.714844 -26.445312 C 15.632812 -26.664062 15.496094 -26.828125 15.332031 -26.992188 C 15.140625 -27.128906 14.921875 -27.210938 14.699219 -27.210938 L 9.964844 -27.210938 C 9.71875 -27.210938 9.5 -27.128906 9.335938 -26.992188 C 9.144531 -26.828125 9.007812 -26.664062 8.953125 -26.445312 L 1.671875 -1.230469 C 1.558594 -0.902344 1.613281 -0.628906 1.835938 -0.382812 C 2.027344 -0.109375 2.273438 0 2.601562 0 L 6.1875 0 C 6.40625 0 6.625 -0.0546875 6.816406 -0.191406 C 6.980469 -0.328125 7.117188 -0.519531 7.199219 -0.765625 L 8.378906 -4.929688 C 8.433594 -5.148438 8.570312 -5.3125 8.761719 -5.449219 C 8.925781 -5.585938 9.144531 -5.667969 9.390625 -5.667969 L 15.277344 -5.667969 C 15.496094 -5.667969 15.714844 -5.585938 15.90625 -5.449219 C 16.070312 -5.3125 16.207031 -5.148438 16.289062 -4.929688 L 17.492188 -0.765625 C 17.546875 -0.519531 17.683594 -0.328125 17.875 -0.191406 C 18.042969 -0.0546875 18.261719 0 18.507812 0 L 22.066406 0 C 22.394531 0 22.640625 -0.109375 22.832031 -0.382812 C 23.023438 -0.628906 23.078125 -0.902344 22.996094 -1.230469 Z M 14.125 -11.085938 L 10.539062 -11.085938 C 10.429688 -11.085938 10.375 -11.113281 10.320312 -11.195312 C 10.265625 -11.25 10.238281 -11.332031 10.265625 -11.441406 L 12.074219 -17.65625 C 12.101562 -17.792969 12.183594 -17.875 12.347656 -17.875 C 12.484375 -17.875 12.566406 -17.792969 12.621094 -17.65625 L 14.398438 -11.441406 C 14.425781 -11.332031 14.398438 -11.25 14.34375 -11.195312 C 14.289062 -11.113281 14.207031 -11.085938 14.125 -11.085938 Z M 14.125 -11.085938 "/></g></g></g><g fill="#5e17eb" fill-opacity="1"><g transform="translate(327.20994, 203.944675)"><g><path d="M 22.996094 -1.230469 L 15.714844 -26.445312 C 15.632812 -26.664062 15.496094 -26.828125 15.332031 -26.992188 C 15.140625 -27.128906 14.921875 -27.210938 14.699219 -27.210938 L 9.964844 -27.210938 C 9.71875 -27.210938 9.5 -27.128906 9.335938 -26.992188 C 9.144531 -26.828125 9.007812 -26.664062 8.953125 -26.445312 L 1.671875 -1.230469 C 1.558594 -0.902344 1.613281 -0.628906 1.835938 -0.382812 C 2.027344 -0.109375 2.273438 0 2.601562 0 L 6.1875 0 C 6.40625 0 6.625 -0.0546875 6.816406 -0.191406 C 6.980469 -0.328125 7.117188 -0.519531 7.199219 -0.765625 L 8.378906 -4.929688 C 8.433594 -5.148438 8.570312 -5.3125 8.761719 -5.449219 C 8.925781 -5.585938 9.144531 -5.667969 9.390625 -5.667969 L 15.277344 -5.667969 C 15.496094 -5.667969 15.714844 -5.585938 15.90625 -5.449219 C 16.070312 -5.3125 16.207031 -5.148438 16.289062 -4.929688 L 17.492188 -0.765625 C 17.546875 -0.519531 17.683594 -0.328125 17.875 -0.191406 C 18.042969 -0.0546875 18.261719 0 18.507812 0 L 22.066406 0 C 22.394531 0 22.640625 -0.109375 22.832031 -0.382812 C 23.023438 -0.628906 23.078125 -0.902344 22.996094 -1.230469 Z M 14.125 -11.085938 L 10.539062 -11.085938 C 10.429688 -11.085938 10.375 -11.113281 10.320312 -11.195312 C 10.265625 -11.25 10.238281 -11.332031 10.265625 -11.441406 L 12.074219 -17.65625 C 12.101562 -17.792969 12.183594 -17.875 12.347656 -17.875 C 12.484375 -17.875 12.566406 -17.792969 12.621094 -17.65625 L 14.398438 -11.441406 C 14.425781 -11.332031 14.398438 -11.25 14.34375 -11.195312 C 14.289062 -11.113281 14.207031 -11.085938 14.125 -11.085938 Z M 14.125 -11.085938 "/></g></g></g><g fill="#e52687" fill-opacity="1"><g transform="translate(177.032275, 218.661292)"><g><path d="M 2.503906 -5.769531 L 1.054688 -5.769531 C 0.9375 -5.769531 0.832031 -5.71875 0.753906 -5.640625 C 0.675781 -5.554688 0.636719 -5.457031 0.636719 -5.339844 L 0.636719 -0.429688 C 0.636719 -0.3125 0.675781 -0.207031 0.753906 -0.128906 C 0.832031 -0.0390625 0.9375 0 1.054688 0 L 2.621094 0 C 2.84375 0 3.070312 -0.0195312 3.292969 -0.078125 C 3.519531 -0.128906 3.753906 -0.226562 4 -0.363281 C 4.242188 -0.5 4.457031 -0.675781 4.644531 -0.890625 C 4.820312 -1.105469 4.976562 -1.386719 5.09375 -1.75 C 5.210938 -2.113281 5.269531 -2.523438 5.269531 -2.992188 C 5.269531 -3.480469 5.179688 -3.921875 5.015625 -4.292969 C 4.839844 -4.664062 4.613281 -4.957031 4.339844 -5.160156 C 4.066406 -5.367188 3.773438 -5.523438 3.460938 -5.621094 C 3.148438 -5.71875 2.835938 -5.769531 2.503906 -5.769531 Z M 2.492188 -0.800781 L 1.484375 -0.800781 L 1.484375 -4.964844 L 2.523438 -4.964844 C 3.058594 -4.964844 3.507812 -4.800781 3.871094 -4.488281 C 4.234375 -4.164062 4.417969 -3.65625 4.417969 -2.960938 C 4.417969 -2.589844 4.371094 -2.257812 4.28125 -1.984375 C 4.195312 -1.710938 4.085938 -1.496094 3.96875 -1.347656 C 3.84375 -1.203125 3.6875 -1.085938 3.5 -0.996094 C 3.304688 -0.910156 3.136719 -0.851562 2.992188 -0.832031 C 2.835938 -0.8125 2.667969 -0.800781 2.492188 -0.800781 Z M 2.492188 -0.800781 "/></g></g></g><g fill="#e52687" fill-opacity="1"><g transform="translate(190.612834, 218.661292)"><g><path d="M 2.785156 -5.769531 C 2.621094 -5.769531 2.472656 -5.71875 2.347656 -5.640625 C 2.21875 -5.554688 2.132812 -5.4375 2.082031 -5.296875 L 0.324219 -0.585938 C 0.304688 -0.527344 0.292969 -0.480469 0.292969 -0.421875 C 0.292969 -0.292969 0.332031 -0.195312 0.410156 -0.117188 C 0.488281 -0.0390625 0.585938 0 0.714844 0 C 0.917969 0 1.054688 -0.0898438 1.125 -0.265625 L 1.523438 -1.359375 L 4.058594 -1.359375 L 4.457031 -0.265625 C 4.515625 -0.0898438 4.652344 0 4.867188 0 C 4.984375 0 5.09375 -0.0390625 5.171875 -0.117188 C 5.25 -0.195312 5.289062 -0.292969 5.289062 -0.421875 C 5.289062 -0.480469 5.277344 -0.527344 5.257812 -0.585938 L 3.5 -5.296875 C 3.441406 -5.4375 3.351562 -5.554688 3.226562 -5.640625 C 3.089844 -5.71875 2.941406 -5.769531 2.785156 -5.769531 Z M 1.828125 -2.160156 L 2.785156 -4.769531 L 3.753906 -2.160156 Z M 1.828125 -2.160156 "/></g></g></g><g fill="#e52687" fill-opacity="1"><g transform="translate(204.017448, 218.661292)"><g><path d="M 2.140625 -4.964844 L 2.140625 -0.429688 C 2.140625 -0.3125 2.179688 -0.207031 2.257812 -0.128906 C 2.335938 -0.0390625 2.445312 0 2.5625 0 C 2.679688 0 2.777344 -0.0390625 2.863281 -0.128906 C 2.941406 -0.207031 2.992188 -0.3125 2.992188 -0.429688 L 2.992188 -4.964844 L 4.339844 -4.964844 C 4.449219 -4.964844 4.546875 -5.003906 4.625 -5.082031 C 4.703125 -5.160156 4.742188 -5.25 4.742188 -5.367188 C 4.742188 -5.476562 4.703125 -5.574219 4.625 -5.652344 C 4.546875 -5.730469 4.449219 -5.769531 4.339844 -5.769531 L 0.792969 -5.769531 C 0.675781 -5.769531 0.585938 -5.730469 0.507812 -5.652344 C 0.429688 -5.574219 0.390625 -5.476562 0.390625 -5.367188 C 0.390625 -5.25 0.429688 -5.160156 0.507812 -5.082031 C 0.585938 -5.003906 0.675781 -4.964844 0.792969 -4.964844 Z M 2.140625 -4.964844 "/></g></g></g><g fill="#e52687" fill-opacity="1"><g transform="translate(216.972411, 218.661292)"><g><path d="M 1.484375 -3.175781 L 1.484375 -4.964844 L 4.085938 -4.964844 C 4.195312 -4.964844 4.292969 -5.003906 4.371094 -5.082031 C 4.449219 -5.160156 4.488281 -5.25 4.488281 -5.367188 C 4.488281 -5.476562 4.449219 -5.574219 4.371094 -5.652344 C 4.292969 -5.730469 4.195312 -5.769531 4.085938 -5.769531 L 1.054688 -5.769531 C 0.9375 -5.769531 0.832031 -5.71875 0.753906 -5.640625 C 0.675781 -5.554688 0.636719 -5.457031 0.636719 -5.339844 L 0.636719 -0.429688 C 0.636719 -0.3125 0.675781 -0.207031 0.753906 -0.128906 C 0.832031 -0.0390625 0.9375 0 1.054688 0 L 4.085938 0 C 4.195312 0 4.292969 -0.0390625 4.371094 -0.117188 C 4.449219 -0.195312 4.488281 -0.285156 4.488281 -0.402344 C 4.488281 -0.507812 4.449219 -0.605469 4.371094 -0.683594 C 4.292969 -0.761719 4.195312 -0.800781 4.085938 -0.800781 L 1.484375 -0.800781 L 1.484375 -2.375 L 3.539062 -2.375 C 3.648438 -2.375 3.746094 -2.414062 3.824219 -2.492188 C 3.902344 -2.570312 3.941406 -2.660156 3.941406 -2.777344 C 3.941406 -2.882812 3.902344 -2.980469 3.824219 -3.058594 C 3.746094 -3.136719 3.648438 -3.175781 3.539062 -3.175781 Z M 1.484375 -3.175781 "/></g></g></g><g fill="#e52687" fill-opacity="1"><g transform="translate(229.819847, 218.661292)"><g/></g></g><g fill="#e52687" fill-opacity="1"><g transform="translate(239.588164, 218.661292)"><g><path d="M 2.960938 0.0585938 C 4.507812 0.0585938 5.289062 -0.832031 5.289062 -2.609375 L 5.289062 -5.339844 C 5.289062 -5.457031 5.238281 -5.554688 5.160156 -5.640625 C 5.082031 -5.71875 4.984375 -5.769531 4.867188 -5.769531 C 4.75 -5.769531 4.644531 -5.71875 4.566406 -5.640625 C 4.476562 -5.554688 4.4375 -5.457031 4.4375 -5.339844 L 4.4375 -2.699219 C 4.4375 -1.386719 3.941406 -0.742188 2.960938 -0.742188 C 1.976562 -0.742188 1.484375 -1.386719 1.484375 -2.699219 L 1.484375 -5.339844 C 1.484375 -5.457031 1.4375 -5.554688 1.359375 -5.640625 C 1.269531 -5.71875 1.171875 -5.769531 1.054688 -5.769531 C 0.9375 -5.769531 0.832031 -5.71875 0.753906 -5.640625 C 0.675781 -5.554688 0.636719 -5.457031 0.636719 -5.339844 L 0.636719 -2.609375 C 0.636719 -0.832031 1.40625 0.0585938 2.960938 0.0585938 Z M 2.960938 0.0585938 "/></g></g></g><g fill="#e52687" fill-opacity="1"><g transform="translate(253.334896, 218.661292)"><g><path d="M 1.484375 -4.429688 L 4.339844 -0.265625 C 4.46875 -0.0898438 4.644531 0 4.859375 0 C 5.035156 0 5.179688 -0.0585938 5.308594 -0.1875 C 5.425781 -0.3125 5.496094 -0.46875 5.496094 -0.644531 L 5.496094 -5.347656 C 5.496094 -5.464844 5.445312 -5.5625 5.367188 -5.640625 C 5.289062 -5.71875 5.191406 -5.769531 5.074219 -5.769531 C 4.957031 -5.769531 4.847656 -5.71875 4.769531 -5.640625 C 4.683594 -5.5625 4.644531 -5.464844 4.644531 -5.347656 L 4.644531 -1.289062 L 1.789062 -5.503906 C 1.671875 -5.679688 1.503906 -5.769531 1.269531 -5.769531 C 1.09375 -5.769531 0.9375 -5.699219 0.820312 -5.574219 C 0.695312 -5.445312 0.636719 -5.296875 0.636719 -5.121094 L 0.636719 -0.421875 C 0.636719 -0.304688 0.675781 -0.195312 0.753906 -0.117188 C 0.832031 -0.0390625 0.9375 0 1.054688 0 C 1.171875 0 1.269531 -0.0390625 1.359375 -0.117188 C 1.4375 -0.195312 1.484375 -0.304688 1.484375 -0.421875 Z M 1.484375 -4.429688 "/></g></g></g><g fill="#e52687" fill-opacity="1"><g transform="translate(267.286905, 218.661292)"><g/></g></g><g fill="#e52687" fill-opacity="1"><g transform="translate(277.055227, 218.661292)"><g><path d="M 3.273438 0.0585938 C 3.804688 0.0585938 4.292969 -0.0703125 4.761719 -0.324219 C 4.878906 -0.402344 4.945312 -0.507812 4.945312 -0.65625 C 4.945312 -0.761719 4.90625 -0.851562 4.839844 -0.929688 C 4.761719 -0.996094 4.671875 -1.035156 4.566406 -1.035156 C 4.488281 -1.035156 4.429688 -1.015625 4.390625 -0.996094 C 4.019531 -0.820312 3.636719 -0.742188 3.253906 -0.742188 C 3.070312 -0.742188 2.894531 -0.753906 2.738281 -0.78125 C 2.582031 -0.800781 2.40625 -0.859375 2.210938 -0.957031 C 2.015625 -1.054688 1.859375 -1.171875 1.71875 -1.328125 C 1.582031 -1.484375 1.464844 -1.699219 1.378906 -1.984375 C 1.28125 -2.257812 1.242188 -2.589844 1.242188 -2.960938 C 1.242188 -4.332031 1.90625 -5.015625 3.253906 -5.015625 C 3.636719 -5.015625 4.019531 -4.925781 4.390625 -4.761719 C 4.429688 -4.730469 4.488281 -4.722656 4.566406 -4.722656 C 4.671875 -4.722656 4.761719 -4.75 4.839844 -4.828125 C 4.90625 -4.90625 4.945312 -4.996094 4.945312 -5.101562 C 4.945312 -5.238281 4.878906 -5.359375 4.761719 -5.4375 C 4.292969 -5.691406 3.792969 -5.816406 3.265625 -5.816406 C 2.914062 -5.816406 2.582031 -5.757812 2.257812 -5.660156 C 1.9375 -5.5625 1.632812 -5.40625 1.347656 -5.191406 C 1.054688 -4.976562 0.832031 -4.683594 0.65625 -4.3125 C 0.480469 -3.929688 0.390625 -3.488281 0.390625 -2.992188 C 0.390625 -2.511719 0.449219 -2.09375 0.585938 -1.71875 C 0.722656 -1.347656 0.890625 -1.046875 1.09375 -0.832031 C 1.300781 -0.617188 1.535156 -0.429688 1.808594 -0.292969 C 2.074219 -0.15625 2.328125 -0.0585938 2.5625 -0.0117188 C 2.796875 0.0390625 3.039062 0.0585938 3.273438 0.0585938 Z M 3.273438 0.0585938 "/></g></g></g><g fill="#e52687" fill-opacity="1"><g transform="translate(290.235013, 218.661292)"><g><path d="M 4.429688 -2.375 L 4.429688 -0.429688 C 4.429688 -0.3125 4.46875 -0.207031 4.546875 -0.128906 C 4.625 -0.0390625 4.730469 0 4.847656 0 C 4.964844 0 5.0625 -0.0390625 5.152344 -0.128906 C 5.230469 -0.207031 5.277344 -0.3125 5.277344 -0.429688 L 5.277344 -5.339844 C 5.277344 -5.457031 5.230469 -5.554688 5.152344 -5.640625 C 5.0625 -5.71875 4.964844 -5.769531 4.847656 -5.769531 C 4.730469 -5.769531 4.625 -5.71875 4.546875 -5.640625 C 4.46875 -5.554688 4.429688 -5.457031 4.429688 -5.339844 L 4.429688 -3.175781 L 1.484375 -3.175781 L 1.484375 -5.339844 C 1.484375 -5.457031 1.4375 -5.554688 1.359375 -5.640625 C 1.269531 -5.71875 1.171875 -5.769531 1.054688 -5.769531 C 0.9375 -5.769531 0.832031 -5.71875 0.753906 -5.640625 C 0.675781 -5.554688 0.636719 -5.457031 0.636719 -5.339844 L 0.636719 -0.429688 C 0.636719 -0.3125 0.675781 -0.207031 0.753906 -0.128906 C 0.832031 -0.0390625 0.9375 0 1.054688 0 C 1.171875 0 1.269531 -0.0390625 1.359375 -0.128906 C 1.4375 -0.207031 1.484375 -0.3125 1.484375 -0.429688 L 1.484375 -2.375 Z M 4.429688 -2.375 "/></g></g></g><g fill="#e52687" fill-opacity="1"><g transform="translate(303.971976, 218.661292)"><g><path d="M 2.785156 -5.769531 C 2.621094 -5.769531 2.472656 -5.71875 2.347656 -5.640625 C 2.21875 -5.554688 2.132812 -5.4375 2.082031 -5.296875 L 0.324219 -0.585938 C 0.304688 -0.527344 0.292969 -0.480469 0.292969 -0.421875 C 0.292969 -0.292969 0.332031 -0.195312 0.410156 -0.117188 C 0.488281 -0.0390625 0.585938 0 0.714844 0 C 0.917969 0 1.054688 -0.0898438 1.125 -0.265625 L 1.523438 -1.359375 L 4.058594 -1.359375 L 4.457031 -0.265625 C 4.515625 -0.0898438 4.652344 0 4.867188 0 C 4.984375 0 5.09375 -0.0390625 5.171875 -0.117188 C 5.25 -0.195312 5.289062 -0.292969 5.289062 -0.421875 C 5.289062 -0.480469 5.277344 -0.527344 5.257812 -0.585938 L 3.5 -5.296875 C 3.441406 -5.4375 3.351562 -5.554688 3.226562 -5.640625 C 3.089844 -5.71875 2.941406 -5.769531 2.785156 -5.769531 Z M 1.828125 -2.160156 L 2.785156 -4.769531 L 3.753906 -2.160156 Z M 1.828125 -2.160156 "/></g></g></g><g fill="#e52687" fill-opacity="1"><g transform="translate(317.376589, 218.661292)"><g><path d="M 1.484375 -4.429688 L 4.339844 -0.265625 C 4.46875 -0.0898438 4.644531 0 4.859375 0 C 5.035156 0 5.179688 -0.0585938 5.308594 -0.1875 C 5.425781 -0.3125 5.496094 -0.46875 5.496094 -0.644531 L 5.496094 -5.347656 C 5.496094 -5.464844 5.445312 -5.5625 5.367188 -5.640625 C 5.289062 -5.71875 5.191406 -5.769531 5.074219 -5.769531 C 4.957031 -5.769531 4.847656 -5.71875 4.769531 -5.640625 C 4.683594 -5.5625 4.644531 -5.464844 4.644531 -5.347656 L 4.644531 -1.289062 L 1.789062 -5.503906 C 1.671875 -5.679688 1.503906 -5.769531 1.269531 -5.769531 C 1.09375 -5.769531 0.9375 -5.699219 0.820312 -5.574219 C 0.695312 -5.445312 0.636719 -5.296875 0.636719 -5.121094 L 0.636719 -0.421875 C 0.636719 -0.304688 0.675781 -0.195312 0.753906 -0.117188 C 0.832031 -0.0390625 0.9375 0 1.054688 0 C 1.171875 0 1.269531 -0.0390625 1.359375 -0.117188 C 1.4375 -0.195312 1.484375 -0.304688 1.484375 -0.421875 Z M 1.484375 -4.429688 "/></g></g></g><g fill="#e52687" fill-opacity="1"><g transform="translate(331.328597, 218.661292)"><g><path d="M 3.273438 0.0585938 C 3.804688 0.0585938 4.292969 -0.0703125 4.761719 -0.324219 C 4.878906 -0.402344 4.945312 -0.507812 4.945312 -0.65625 C 4.945312 -0.761719 4.90625 -0.851562 4.839844 -0.929688 C 4.761719 -0.996094 4.671875 -1.035156 4.566406 -1.035156 C 4.488281 -1.035156 4.429688 -1.015625 4.390625 -0.996094 C 4.019531 -0.820312 3.636719 -0.742188 3.253906 -0.742188 C 3.070312 -0.742188 2.894531 -0.753906 2.738281 -0.78125 C 2.582031 -0.800781 2.40625 -0.859375 2.210938 -0.957031 C 2.015625 -1.054688 1.859375 -1.171875 1.71875 -1.328125 C 1.582031 -1.484375 1.464844 -1.699219 1.378906 -1.984375 C 1.28125 -2.257812 1.242188 -2.589844 1.242188 -2.960938 C 1.242188 -4.332031 1.90625 -5.015625 3.253906 -5.015625 C 3.636719 -5.015625 4.019531 -4.925781 4.390625 -4.761719 C 4.429688 -4.730469 4.488281 -4.722656 4.566406 -4.722656 C 4.671875 -4.722656 4.761719 -4.75 4.839844 -4.828125 C 4.90625 -4.90625 4.945312 -4.996094 4.945312 -5.101562 C 4.945312 -5.238281 4.878906 -5.359375 4.761719 -5.4375 C 4.292969 -5.691406 3.792969 -5.816406 3.265625 -5.816406 C 2.914062 -5.816406 2.582031 -5.757812 2.257812 -5.660156 C 1.9375 -5.5625 1.632812 -5.40625 1.347656 -5.191406 C 1.054688 -4.976562 0.832031 -4.683594 0.65625 -4.3125 C 0.480469 -3.929688 0.390625 -3.488281 0.390625 -2.992188 C 0.390625 -2.511719 0.449219 -2.09375 0.585938 -1.71875 C 0.722656 -1.347656 0.890625 -1.046875 1.09375 -0.832031 C 1.300781 -0.617188 1.535156 -0.429688 1.808594 -0.292969 C 2.074219 -0.15625 2.328125 -0.0585938 2.5625 -0.0117188 C 2.796875 0.0390625 3.039062 0.0585938 3.273438 0.0585938 Z M 3.273438 0.0585938 "/></g></g></g><g fill="#e52687" fill-opacity="1"><g transform="translate(344.508384, 218.661292)"><g><path d="M 1.484375 -3.175781 L 1.484375 -4.964844 L 4.085938 -4.964844 C 4.195312 -4.964844 4.292969 -5.003906 4.371094 -5.082031 C 4.449219 -5.160156 4.488281 -5.25 4.488281 -5.367188 C 4.488281 -5.476562 4.449219 -5.574219 4.371094 -5.652344 C 4.292969 -5.730469 4.195312 -5.769531 4.085938 -5.769531 L 1.054688 -5.769531 C 0.9375 -5.769531 0.832031 -5.71875 0.753906 -5.640625 C 0.675781 -5.554688 0.636719 -5.457031 0.636719 -5.339844 L 0.636719 -0.429688 C 0.636719 -0.3125 0.675781 -0.207031 0.753906 -0.128906 C 0.832031 -0.0390625 0.9375 0 1.054688 0 L 4.085938 0 C 4.195312 0 4.292969 -0.0390625 4.371094 -0.117188 C 4.449219 -0.195312 4.488281 -0.285156 4.488281 -0.402344 C 4.488281 -0.507812 4.449219 -0.605469 4.371094 -0.683594 C 4.292969 -0.761719 4.195312 -0.800781 4.085938 -0.800781 L 1.484375 -0.800781 L 1.484375 -2.375 L 3.539062 -2.375 C 3.648438 -2.375 3.746094 -2.414062 3.824219 -2.492188 C 3.902344 -2.570312 3.941406 -2.660156 3.941406 -2.777344 C 3.941406 -2.882812 3.902344 -2.980469 3.824219 -3.058594 C 3.746094 -3.136719 3.648438 -3.175781 3.539062 -3.175781 Z M 1.484375 -3.175781 "/></g></g></g></svg>