<svg xmlns="http://www.w3.org/2000/svg" xmlns:xlink="http://www.w3.org/1999/xlink" width="500" zoomAndPan="magnify" viewBox="0 0 375 374.999991" height="500" preserveAspectRatio="xMidYMid meet" version="1.0"><defs><g/></defs><rect x="-37.5" width="450" fill="#ffffff" y="-37.499999" height="449.999989" fill-opacity="1"/><rect x="-37.5" width="450" fill="#ffffff" y="-37.499999" height="449.999989" fill-opacity="1"/><g fill="#e52687" fill-opacity="1"><g transform="translate(0.0000045, 207.814152)"><g><path d="M 51.664062 -51.097656 L 46.472656 -51.097656 C 44.878906 -51.097656 43.488281 -50.53125 42.359375 -49.503906 L 31.203125 -39.273438 C 30.894531 -38.964844 30.585938 -38.863281 30.226562 -38.863281 C 29.816406 -38.863281 29.507812 -38.964844 29.25 -39.273438 L 18.09375 -49.503906 C 16.914062 -50.53125 15.523438 -51.097656 13.984375 -51.097656 L 8.789062 -51.097656 C 8.070312 -51.097656 7.453125 -50.839844 6.941406 -50.328125 C 6.425781 -49.8125 6.167969 -49.195312 6.167969 -48.476562 L 6.167969 -2.621094 C 6.167969 -1.902344 6.425781 -1.285156 6.941406 -0.769531 C 7.453125 -0.257812 8.070312 0 8.789062 0 L 13.726562 0 C 14.445312 0 15.0625 -0.257812 15.578125 -0.769531 C 16.089844 -1.285156 16.347656 -1.902344 16.347656 -2.621094 L 16.347656 -34.03125 C 16.347656 -34.339844 16.398438 -34.597656 16.554688 -34.800781 C 16.707031 -35.007812 16.914062 -35.214844 17.167969 -35.316406 C 17.375 -35.417969 17.632812 -35.417969 17.941406 -35.417969 C 18.199219 -35.367188 18.453125 -35.265625 18.710938 -35.058594 L 28.429688 -26.011719 C 28.941406 -25.496094 29.507812 -25.292969 30.226562 -25.292969 C 30.894531 -25.292969 31.460938 -25.496094 31.976562 -26.011719 L 41.742188 -35.058594 C 41.949219 -35.265625 42.203125 -35.367188 42.511719 -35.417969 C 42.769531 -35.417969 43.027344 -35.417969 43.285156 -35.316406 C 43.488281 -35.214844 43.695312 -35.007812 43.851562 -34.800781 C 44.003906 -34.597656 44.105469 -34.339844 44.105469 -34.03125 L 44.105469 -2.621094 C 44.105469 -1.902344 44.363281 -1.285156 44.878906 -0.769531 C 45.390625 -0.257812 46.007812 0 46.730469 0 L 51.664062 0 C 52.382812 0 53 -0.257812 53.515625 -0.769531 C 54.027344 -1.285156 54.285156 -1.902344 54.285156 -2.621094 L 54.285156 -48.476562 C 54.285156 -49.195312 54.027344 -49.8125 53.515625 -50.328125 C 53 -50.839844 52.382812 -51.097656 51.664062 -51.097656 Z M 51.664062 -51.097656 "/></g></g></g><g fill="#e52687" fill-opacity="1"><g transform="translate(57.364544, 207.814152)"><g><path d="M 43.183594 -2.3125 L 29.507812 -49.660156 C 29.351562 -50.070312 29.097656 -50.378906 28.789062 -50.6875 C 28.429688 -50.945312 28.015625 -51.097656 27.605469 -51.097656 L 18.710938 -51.097656 C 18.25 -51.097656 17.839844 -50.945312 17.53125 -50.6875 C 17.167969 -50.378906 16.914062 -50.070312 16.808594 -49.660156 L 3.136719 -2.3125 C 2.929688 -1.695312 3.03125 -1.183594 3.445312 -0.71875 C 3.804688 -0.207031 4.265625 0 4.882812 0 L 11.617188 0 C 12.027344 0 12.441406 -0.101562 12.800781 -0.359375 C 13.109375 -0.617188 13.367188 -0.976562 13.519531 -1.4375 L 15.730469 -9.253906 C 15.832031 -9.664062 16.089844 -9.972656 16.449219 -10.230469 C 16.757812 -10.488281 17.167969 -10.640625 17.632812 -10.640625 L 28.683594 -10.640625 C 29.097656 -10.640625 29.507812 -10.488281 29.867188 -10.230469 C 30.175781 -9.972656 30.433594 -9.664062 30.585938 -9.253906 L 32.847656 -1.4375 C 32.953125 -0.976562 33.207031 -0.617188 33.570312 -0.359375 C 33.878906 -0.101562 34.289062 0 34.75 0 L 41.433594 0 C 42.050781 0 42.511719 -0.207031 42.875 -0.71875 C 43.234375 -1.183594 43.335938 -1.695312 43.183594 -2.3125 Z M 26.527344 -20.820312 L 19.792969 -20.820312 C 19.585938 -20.820312 19.484375 -20.871094 19.378906 -21.023438 C 19.277344 -21.128906 19.226562 -21.28125 19.277344 -21.488281 L 22.671875 -33.15625 C 22.722656 -33.414062 22.875 -33.570312 23.183594 -33.570312 C 23.441406 -33.570312 23.597656 -33.414062 23.699219 -33.15625 L 27.039062 -21.488281 C 27.089844 -21.28125 27.039062 -21.128906 26.9375 -21.023438 C 26.835938 -20.871094 26.679688 -20.820312 26.527344 -20.820312 Z M 26.527344 -20.820312 "/></g></g></g><g fill="#e52687" fill-opacity="1"><g transform="translate(100.644786, 207.814152)"><g><path d="M 38.453125 -51.097656 L 9.203125 -51.097656 C 8.328125 -51.097656 7.609375 -50.789062 7.042969 -50.171875 C 6.425781 -49.554688 6.167969 -48.886719 6.167969 -48.066406 L 6.167969 -43.953125 C 6.167969 -43.078125 6.425781 -42.359375 7.042969 -41.792969 C 7.609375 -41.175781 8.328125 -40.917969 9.203125 -40.917969 L 17.375 -40.917969 C 17.734375 -40.917969 18.042969 -40.765625 18.351562 -40.507812 C 18.609375 -40.199219 18.761719 -39.890625 18.761719 -39.53125 L 18.761719 -3.03125 C 18.761719 -2.210938 19.019531 -1.492188 19.636719 -0.875 C 20.253906 -0.257812 20.972656 0 21.796875 0 L 25.910156 0 C 26.730469 0 27.453125 -0.257812 28.066406 -0.875 C 28.632812 -1.492188 28.941406 -2.210938 28.941406 -3.03125 L 28.941406 -39.53125 C 28.941406 -39.890625 29.042969 -40.199219 29.351562 -40.507812 C 29.609375 -40.765625 29.917969 -40.917969 30.328125 -40.917969 L 38.453125 -40.917969 C 39.273438 -40.917969 39.996094 -41.175781 40.613281 -41.792969 C 41.226562 -42.359375 41.535156 -43.078125 41.535156 -43.953125 L 41.535156 -48.066406 C 41.535156 -48.886719 41.226562 -49.554688 40.613281 -50.171875 C 39.996094 -50.789062 39.273438 -51.097656 38.453125 -51.097656 Z M 38.453125 -51.097656 "/></g></g></g><g fill="#e52687" fill-opacity="1"><g transform="translate(145.261502, 207.814152)"><g><path d="M 27.246094 -40.867188 L 33.15625 -40.867188 C 34.082031 -40.867188 34.90625 -41.175781 35.625 -41.898438 C 36.292969 -42.566406 36.652344 -43.386719 36.652344 -44.414062 L 36.652344 -47.550781 C 36.652344 -48.527344 36.292969 -49.351562 35.625 -50.070312 C 34.90625 -50.738281 34.082031 -51.097656 33.15625 -51.097656 L 27.246094 -51.097656 C 23.492188 -51.097656 20.101562 -50.378906 17.015625 -48.992188 C 13.929688 -47.550781 11.308594 -45.496094 9.046875 -42.820312 C 7.09375 -40.507812 5.601562 -37.886719 4.574219 -34.90625 C 3.546875 -31.921875 3.085938 -28.839844 3.085938 -25.550781 C 3.085938 -22.363281 3.597656 -19.226562 4.625 -16.191406 C 5.65625 -13.109375 7.144531 -10.382812 9.203125 -8.019531 C 11.257812 -5.601562 13.777344 -3.648438 16.757812 -2.210938 C 19.738281 -0.71875 23.234375 0 27.246094 0 L 33.15625 0 C 34.082031 0 34.90625 -0.308594 35.625 -1.027344 C 36.292969 -1.695312 36.652344 -2.519531 36.652344 -3.496094 L 36.652344 -6.632812 C 36.652344 -7.609375 36.292969 -8.429688 35.625 -9.152344 C 34.90625 -9.820312 34.082031 -10.179688 33.15625 -10.179688 L 27.246094 -10.179688 C 24.46875 -10.179688 22.15625 -10.691406 20.355469 -11.773438 C 18.558594 -12.800781 17.117188 -14.136719 16.089844 -15.730469 C 15.0625 -17.273438 14.292969 -18.96875 13.878906 -20.71875 C 13.46875 -22.464844 13.261719 -24.109375 13.261719 -25.550781 C 13.261719 -27.605469 13.570312 -29.558594 14.1875 -31.410156 C 14.804688 -33.261719 15.730469 -34.90625 16.863281 -36.34375 C 19.328125 -39.328125 22.824219 -40.867188 27.246094 -40.867188 Z M 27.246094 -40.867188 "/></g></g></g><g fill="#e52687" fill-opacity="1"><g transform="translate(185.046357, 207.814152)"><g><path d="M 39.890625 -51.097656 L 33.722656 -51.097656 C 33.15625 -51.097656 32.695312 -50.894531 32.285156 -50.480469 C 31.871094 -50.070312 31.71875 -49.609375 31.71875 -49.09375 L 31.71875 -32.488281 C 31.71875 -31.976562 31.511719 -31.511719 31.152344 -31.152344 C 30.792969 -30.792969 30.382812 -30.636719 29.867188 -30.636719 L 18.199219 -30.636719 C 17.683594 -30.636719 17.222656 -30.792969 16.863281 -31.152344 C 16.5 -31.511719 16.347656 -31.976562 16.347656 -32.488281 L 16.347656 -49.09375 C 16.347656 -49.609375 16.140625 -50.070312 15.78125 -50.480469 C 15.371094 -50.894531 14.90625 -51.097656 14.34375 -51.097656 L 8.171875 -51.097656 C 7.609375 -51.097656 7.144531 -50.894531 6.734375 -50.480469 C 6.324219 -50.070312 6.167969 -49.609375 6.167969 -49.09375 L 6.167969 -2.003906 C 6.167969 -1.4375 6.324219 -0.976562 6.734375 -0.566406 C 7.144531 -0.152344 7.609375 0 8.171875 0 L 14.34375 0 C 14.90625 0 15.371094 -0.152344 15.78125 -0.566406 C 16.140625 -0.976562 16.347656 -1.4375 16.347656 -2.003906 L 16.347656 -18.609375 C 16.347656 -19.125 16.5 -19.535156 16.863281 -19.894531 C 17.222656 -20.253906 17.683594 -20.460938 18.199219 -20.460938 L 29.867188 -20.460938 C 30.382812 -20.460938 30.792969 -20.253906 31.152344 -19.894531 C 31.511719 -19.535156 31.71875 -19.125 31.71875 -18.609375 L 31.71875 -2.003906 C 31.71875 -1.4375 31.871094 -0.976562 32.285156 -0.566406 C 32.695312 -0.152344 33.15625 0 33.722656 0 L 39.890625 0 C 40.457031 0 40.917969 -0.152344 41.332031 -0.566406 C 41.691406 -0.976562 41.898438 -1.4375 41.898438 -2.003906 L 41.898438 -49.09375 C 41.898438 -49.609375 41.691406 -50.070312 41.332031 -50.480469 C 40.917969 -50.894531 40.457031 -51.097656 39.890625 -51.097656 Z M 39.890625 -51.097656 "/></g></g></g><g fill="#5e17eb" fill-opacity="1"><g transform="translate(230.072548, 207.814152)"><g><path d="M 39.839844 -51.046875 L 34.082031 -51.046875 C 33.464844 -51.046875 32.898438 -50.789062 32.488281 -50.378906 C 32.078125 -49.96875 31.871094 -49.453125 31.871094 -48.835938 L 31.871094 -16.605469 C 31.871094 -15.011719 31.460938 -13.777344 30.742188 -12.953125 C 30.023438 -12.082031 29.199219 -11.464844 28.273438 -11.050781 C 27.347656 -10.640625 26.472656 -10.382812 25.652344 -10.28125 C 24.828125 -10.179688 24.316406 -10.179688 24.109375 -10.179688 C 23.902344 -10.179688 23.390625 -10.179688 22.566406 -10.28125 C 21.746094 -10.382812 20.871094 -10.640625 19.945312 -11.050781 C 19.019531 -11.464844 18.148438 -12.082031 17.425781 -12.953125 C 16.707031 -13.777344 16.347656 -15.011719 16.347656 -16.605469 L 16.347656 -48.835938 C 16.347656 -49.453125 16.089844 -49.96875 15.679688 -50.378906 C 15.269531 -50.789062 14.753906 -51.046875 14.136719 -51.046875 L 8.378906 -51.046875 C 7.761719 -51.046875 7.195312 -50.789062 6.785156 -50.378906 C 6.375 -49.96875 6.167969 -49.453125 6.167969 -48.835938 L 6.167969 -16.605469 C 6.167969 -14.035156 6.632812 -11.667969 7.660156 -9.511719 C 8.6875 -7.351562 10.128906 -5.5 12.082031 -3.957031 C 13.726562 -2.621094 15.578125 -1.644531 17.632812 -0.976562 C 19.6875 -0.257812 21.847656 0.0507812 24.109375 0.0507812 C 26.371094 0.0507812 28.53125 -0.257812 30.585938 -0.976562 C 32.644531 -1.644531 34.492188 -2.621094 36.140625 -3.957031 C 38.042969 -5.5 39.480469 -7.351562 40.507812 -9.511719 C 41.535156 -11.667969 42.050781 -14.035156 42.050781 -16.605469 L 42.050781 -48.835938 C 42.050781 -49.453125 41.792969 -49.96875 41.382812 -50.378906 C 40.972656 -50.789062 40.457031 -51.046875 39.839844 -51.046875 Z M 39.839844 -51.046875 "/></g></g></g><g fill="#5e17eb" fill-opacity="1"><g transform="translate(275.254679, 207.814152)"><g><path d="M 43.183594 -2.3125 L 29.507812 -49.660156 C 29.351562 -50.070312 29.097656 -50.378906 28.789062 -50.6875 C 28.429688 -50.945312 28.015625 -51.097656 27.605469 -51.097656 L 18.710938 -51.097656 C 18.25 -51.097656 17.839844 -50.945312 17.53125 -50.6875 C 17.167969 -50.378906 16.914062 -50.070312 16.808594 -49.660156 L 3.136719 -2.3125 C 2.929688 -1.695312 3.03125 -1.183594 3.445312 -0.71875 C 3.804688 -0.207031 4.265625 0 4.882812 0 L 11.617188 0 C 12.027344 0 12.441406 -0.101562 12.800781 -0.359375 C 13.109375 -0.617188 13.367188 -0.976562 13.519531 -1.4375 L 15.730469 -9.253906 C 15.832031 -9.664062 16.089844 -9.972656 16.449219 -10.230469 C 16.757812 -10.488281 17.167969 -10.640625 17.632812 -10.640625 L 28.683594 -10.640625 C 29.097656 -10.640625 29.507812 -10.488281 29.867188 -10.230469 C 30.175781 -9.972656 30.433594 -9.664062 30.585938 -9.253906 L 32.847656 -1.4375 C 32.953125 -0.976562 33.207031 -0.617188 33.570312 -0.359375 C 33.878906 -0.101562 34.289062 0 34.75 0 L 41.433594 0 C 42.050781 0 42.511719 -0.207031 42.875 -0.71875 C 43.234375 -1.183594 43.335938 -1.695312 43.183594 -2.3125 Z M 26.527344 -20.820312 L 19.792969 -20.820312 C 19.585938 -20.820312 19.484375 -20.871094 19.378906 -21.023438 C 19.277344 -21.128906 19.226562 -21.28125 19.277344 -21.488281 L 22.671875 -33.15625 C 22.722656 -33.414062 22.875 -33.570312 23.183594 -33.570312 C 23.441406 -33.570312 23.597656 -33.414062 23.699219 -33.15625 L 27.039062 -21.488281 C 27.089844 -21.28125 27.039062 -21.128906 26.9375 -21.023438 C 26.835938 -20.871094 26.679688 -20.820312 26.527344 -20.820312 Z M 26.527344 -20.820312 "/></g></g></g><g fill="#5e17eb" fill-opacity="1"><g transform="translate(318.534921, 207.814152)"><g><path d="M 43.183594 -2.3125 L 29.507812 -49.660156 C 29.351562 -50.070312 29.097656 -50.378906 28.789062 -50.6875 C 28.429688 -50.945312 28.015625 -51.097656 27.605469 -51.097656 L 18.710938 -51.097656 C 18.25 -51.097656 17.839844 -50.945312 17.53125 -50.6875 C 17.167969 -50.378906 16.914062 -50.070312 16.808594 -49.660156 L 3.136719 -2.3125 C 2.929688 -1.695312 3.03125 -1.183594 3.445312 -0.71875 C 3.804688 -0.207031 4.265625 0 4.882812 0 L 11.617188 0 C 12.027344 0 12.441406 -0.101562 12.800781 -0.359375 C 13.109375 -0.617188 13.367188 -0.976562 13.519531 -1.4375 L 15.730469 -9.253906 C 15.832031 -9.664062 16.089844 -9.972656 16.449219 -10.230469 C 16.757812 -10.488281 17.167969 -10.640625 17.632812 -10.640625 L 28.683594 -10.640625 C 29.097656 -10.640625 29.507812 -10.488281 29.867188 -10.230469 C 30.175781 -9.972656 30.433594 -9.664062 30.585938 -9.253906 L 32.847656 -1.4375 C 32.953125 -0.976562 33.207031 -0.617188 33.570312 -0.359375 C 33.878906 -0.101562 34.289062 0 34.75 0 L 41.433594 0 C 42.050781 0 42.511719 -0.207031 42.875 -0.71875 C 43.234375 -1.183594 43.335938 -1.695312 43.183594 -2.3125 Z M 26.527344 -20.820312 L 19.792969 -20.820312 C 19.585938 -20.820312 19.484375 -20.871094 19.378906 -21.023438 C 19.277344 -21.128906 19.226562 -21.28125 19.277344 -21.488281 L 22.671875 -33.15625 C 22.722656 -33.414062 22.875 -33.570312 23.183594 -33.570312 C 23.441406 -33.570312 23.597656 -33.414062 23.699219 -33.15625 L 27.039062 -21.488281 C 27.089844 -21.28125 27.039062 -21.128906 26.9375 -21.023438 C 26.835938 -20.871094 26.679688 -20.820312 26.527344 -20.820312 Z M 26.527344 -20.820312 "/></g></g></g></svg>