<svg xmlns="http://www.w3.org/2000/svg" xmlns:xlink="http://www.w3.org/1999/xlink" width="500" zoomAndPan="magnify" viewBox="0 0 375 374.999991" height="500" preserveAspectRatio="xMidYMid meet" version="1.0"><defs><g/><clipPath id="a867eda48d"><path d="M 139 117 L 253.5625 117 L 253.5625 221 L 139 221 Z M 139 117 " clip-rule="nonzero"/></clipPath><clipPath id="6cd84bee40"><path d="M 121.5625 77 L 236 77 L 236 182 L 121.5625 182 Z M 121.5625 77 " clip-rule="nonzero"/></clipPath></defs><rect x="-37.5" width="450" fill="#ffffff" y="-37.499999" height="449.999989" fill-opacity="1"/><rect x="-37.5" width="450" fill="#ffffff" y="-37.499999" height="449.999989" fill-opacity="1"/><rect x="-37.5" width="450" fill="#000000" y="-37.499999" height="449.999989" fill-opacity="1"/><g clip-path="url(#a867eda48d)"><path fill="#e52687" d="M 188.507812 192.53125 C 192.902344 192.53125 192.902344 199.191406 188.507812 199.191406 L 150.921875 199.191406 C 147.804688 199.191406 144.960938 197.910156 142.894531 195.851562 L 142.890625 195.855469 C 140.828125 193.796875 139.550781 190.957031 139.550781 187.832031 L 139.550781 128.390625 C 139.550781 122.132812 144.660156 117.027344 150.921875 117.027344 L 242.140625 117.027344 C 248.40625 117.027344 253.515625 122.132812 253.515625 128.390625 L 253.515625 187.832031 C 253.515625 194.070312 248.386719 199.195312 242.140625 199.195312 L 226.339844 199.195312 L 226.339844 217.488281 C 226.339844 220.460938 222.726562 221.921875 220.648438 219.84375 L 166.28125 165.53125 C 162.144531 161.398438 160.074219 155.953125 160.074219 150.507812 L 160.085938 150.507812 C 160.085938 138.734375 169.527344 129.296875 181.316406 129.300781 L 181.316406 129.289062 C 186.957031 129.289062 192.269531 131.414062 196.53125 135.667969 C 210.1875 122.027344 232.988281 131.71875 232.988281 150.511719 C 232.988281 160.902344 226.753906 165.558594 220.050781 172.257812 L 205.632812 186.664062 C 202.527344 189.765625 197.8125 185.054688 200.917969 181.953125 L 222.066406 160.824219 C 231.121094 151.777344 224.851562 135.957031 211.746094 135.957031 C 204.570312 135.957031 201.265625 140.363281 196.53125 145.09375 C 191.835938 140.40625 188.515625 135.957031 181.316406 135.957031 L 181.316406 135.945312 C 173.242188 135.945312 166.730469 142.453125 166.730469 150.515625 L 166.742188 150.515625 C 166.742188 154.253906 168.160156 157.992188 170.996094 160.824219 L 178.121094 167.941406 L 178.015625 167.941406 L 178.015625 168.015625 C 179.117188 168.632812 215.480469 205.261719 219.664062 209.445312 L 219.664062 195.863281 C 219.664062 194.023438 221.15625 192.53125 223 192.53125 L 242.136719 192.53125 C 244.734375 192.53125 246.839844 190.425781 246.839844 187.832031 L 246.839844 128.390625 C 246.839844 125.8125 244.714844 123.691406 242.136719 123.691406 L 150.921875 123.691406 C 148.339844 123.691406 146.21875 125.8125 146.21875 128.390625 L 146.21875 187.832031 C 146.21875 189.121094 146.75 190.296875 147.605469 191.148438 L 147.597656 191.15625 C 148.449219 192.003906 149.621094 192.53125 150.921875 192.53125 Z M 188.507812 192.53125 " fill-opacity="1" fill-rule="nonzero"/></g><g clip-path="url(#6cd84bee40)"><path fill="#5e17eb" d="M 219.632812 158.386719 C 217.929688 160.089844 215.335938 157.503906 217.042969 155.800781 C 221.691406 151.152344 218.457031 143.050781 211.746094 143.050781 C 209.332031 143.050781 209.332031 139.390625 211.746094 139.390625 C 221.671875 139.390625 226.605469 151.421875 219.632812 158.386719 Z M 173.75 105.808594 C 172.714844 105.808594 171.785156 105.335938 171.179688 104.597656 L 155.460938 88.898438 L 155.460938 102.476562 C 155.460938 104.316406 153.96875 105.808594 152.128906 105.808594 L 132.988281 105.808594 C 131.695312 105.808594 130.519531 106.339844 129.667969 107.191406 L 129.652344 107.191406 C 128.808594 108.035156 128.28125 109.210938 128.28125 110.507812 L 128.28125 169.949219 C 128.28125 171.238281 128.808594 172.410156 129.664062 173.261719 L 129.660156 173.269531 C 131.242188 174.84375 132.828125 174.644531 134.824219 174.644531 C 139.21875 174.644531 139.21875 181.308594 134.824219 181.308594 C 126.519531 181.308594 125.492188 177.972656 124.949219 177.972656 C 122.890625 175.921875 121.613281 173.078125 121.613281 169.949219 L 121.613281 110.511719 C 121.613281 107.394531 122.894531 104.554688 124.957031 102.488281 L 124.953125 102.484375 C 127.011719 100.425781 129.855469 99.148438 132.988281 99.148438 L 148.789062 99.148438 L 148.789062 80.855469 C 148.789062 77.882812 152.402344 76.417969 154.484375 78.5 L 175.152344 99.144531 L 224.207031 99.144531 C 229.3125 99.144531 232.164062 102.480469 232.242188 102.480469 C 235.308594 105.542969 235.582031 108.457031 235.582031 112.355469 C 235.582031 116.742188 228.910156 116.742188 228.910156 112.355469 C 228.910156 110.355469 229.113281 108.777344 227.527344 107.195312 L 227.535156 107.1875 C 226.679688 106.339844 225.503906 105.8125 224.207031 105.8125 L 173.75 105.8125 Z M 173.75 105.808594 " fill-opacity="1" fill-rule="nonzero"/></g><g fill="#e52687" fill-opacity="1"><g transform="translate(63.31042, 269.360052)"><g><path d="M 35.167969 -34.785156 L 31.636719 -34.785156 C 30.550781 -34.785156 29.605469 -34.398438 28.835938 -33.699219 L 21.242188 -26.734375 C 21.03125 -26.527344 20.820312 -26.457031 20.578125 -26.457031 C 20.296875 -26.457031 20.085938 -26.527344 19.910156 -26.734375 L 12.316406 -33.699219 C 11.511719 -34.398438 10.566406 -34.785156 9.519531 -34.785156 L 5.984375 -34.785156 C 5.496094 -34.785156 5.074219 -34.609375 4.722656 -34.257812 C 4.375 -33.910156 4.199219 -33.488281 4.199219 -33 L 4.199219 -1.785156 C 4.199219 -1.292969 4.375 -0.875 4.722656 -0.523438 C 5.074219 -0.175781 5.496094 0 5.984375 0 L 9.34375 0 C 9.832031 0 10.253906 -0.175781 10.601562 -0.523438 C 10.953125 -0.875 11.128906 -1.292969 11.128906 -1.785156 L 11.128906 -23.167969 C 11.128906 -23.375 11.164062 -23.550781 11.269531 -23.691406 C 11.375 -23.832031 11.511719 -23.972656 11.6875 -24.042969 C 11.828125 -24.109375 12.003906 -24.109375 12.214844 -24.109375 C 12.386719 -24.078125 12.5625 -24.007812 12.738281 -23.867188 L 19.351562 -17.707031 C 19.703125 -17.355469 20.085938 -17.21875 20.578125 -17.21875 C 21.03125 -17.21875 21.417969 -17.355469 21.765625 -17.707031 L 28.414062 -23.867188 C 28.554688 -24.007812 28.730469 -24.078125 28.941406 -24.109375 C 29.117188 -24.109375 29.289062 -24.109375 29.464844 -24.042969 C 29.605469 -23.972656 29.746094 -23.832031 29.851562 -23.691406 C 29.957031 -23.550781 30.023438 -23.375 30.023438 -23.167969 L 30.023438 -1.785156 C 30.023438 -1.292969 30.199219 -0.875 30.550781 -0.523438 C 30.898438 -0.175781 31.320312 0 31.808594 0 L 35.167969 0 C 35.660156 0 36.078125 -0.175781 36.429688 -0.523438 C 36.777344 -0.875 36.953125 -1.292969 36.953125 -1.785156 L 36.953125 -33 C 36.953125 -33.488281 36.777344 -33.910156 36.429688 -34.257812 C 36.078125 -34.609375 35.660156 -34.785156 35.167969 -34.785156 Z M 35.167969 -34.785156 "/></g></g></g><g fill="#e52687" fill-opacity="1"><g transform="translate(102.355917, 269.360052)"><g><path d="M 29.394531 -1.574219 L 20.085938 -33.804688 C 19.980469 -34.085938 19.808594 -34.292969 19.597656 -34.503906 C 19.351562 -34.679688 19.070312 -34.785156 18.792969 -34.785156 L 12.738281 -34.785156 C 12.421875 -34.785156 12.144531 -34.679688 11.933594 -34.503906 C 11.6875 -34.292969 11.511719 -34.085938 11.441406 -33.804688 L 2.132812 -1.574219 C 1.996094 -1.15625 2.066406 -0.804688 2.34375 -0.488281 C 2.589844 -0.140625 2.90625 0 3.324219 0 L 7.910156 0 C 8.1875 0 8.46875 -0.0703125 8.714844 -0.246094 C 8.921875 -0.421875 9.097656 -0.664062 9.203125 -0.980469 L 10.707031 -6.300781 C 10.777344 -6.578125 10.953125 -6.789062 11.199219 -6.964844 C 11.410156 -7.140625 11.6875 -7.242188 12.003906 -7.242188 L 19.527344 -7.242188 C 19.808594 -7.242188 20.085938 -7.140625 20.332031 -6.964844 C 20.542969 -6.789062 20.714844 -6.578125 20.820312 -6.300781 L 22.363281 -0.980469 C 22.429688 -0.664062 22.605469 -0.421875 22.851562 -0.246094 C 23.0625 -0.0703125 23.339844 0 23.65625 0 L 28.207031 0 C 28.625 0 28.941406 -0.140625 29.183594 -0.488281 C 29.429688 -0.804688 29.5 -1.15625 29.394531 -1.574219 Z M 18.058594 -14.171875 L 13.472656 -14.171875 C 13.332031 -14.171875 13.261719 -14.207031 13.191406 -14.3125 C 13.121094 -14.382812 13.089844 -14.488281 13.121094 -14.628906 L 15.433594 -22.570312 C 15.46875 -22.746094 15.574219 -22.851562 15.78125 -22.851562 C 15.957031 -22.851562 16.0625 -22.746094 16.132812 -22.570312 L 18.40625 -14.628906 C 18.441406 -14.488281 18.40625 -14.382812 18.335938 -14.3125 C 18.265625 -14.207031 18.164062 -14.171875 18.058594 -14.171875 Z M 18.058594 -14.171875 "/></g></g></g><g fill="#e52687" fill-opacity="1"><g transform="translate(131.814787, 269.360052)"><g><path d="M 26.175781 -34.785156 L 6.265625 -34.785156 C 5.667969 -34.785156 5.179688 -34.574219 4.792969 -34.15625 C 4.375 -33.734375 4.199219 -33.28125 4.199219 -32.71875 L 4.199219 -29.921875 C 4.199219 -29.324219 4.375 -28.835938 4.792969 -28.449219 C 5.179688 -28.03125 5.667969 -27.855469 6.265625 -27.855469 L 11.828125 -27.855469 C 12.074219 -27.855469 12.28125 -27.75 12.492188 -27.574219 C 12.667969 -27.367188 12.773438 -27.15625 12.773438 -26.910156 L 12.773438 -2.066406 C 12.773438 -1.503906 12.949219 -1.015625 13.367188 -0.59375 C 13.789062 -0.175781 14.277344 0 14.835938 0 L 17.636719 0 C 18.195312 0 18.6875 -0.175781 19.105469 -0.59375 C 19.492188 -1.015625 19.703125 -1.503906 19.703125 -2.066406 L 19.703125 -26.910156 C 19.703125 -27.15625 19.773438 -27.367188 19.980469 -27.574219 C 20.15625 -27.75 20.367188 -27.855469 20.648438 -27.855469 L 26.175781 -27.855469 C 26.734375 -27.855469 27.226562 -28.03125 27.644531 -28.449219 C 28.066406 -28.835938 28.277344 -29.324219 28.277344 -29.921875 L 28.277344 -32.71875 C 28.277344 -33.28125 28.066406 -33.734375 27.644531 -34.15625 C 27.226562 -34.574219 26.734375 -34.785156 26.175781 -34.785156 Z M 26.175781 -34.785156 "/></g></g></g><g fill="#e52687" fill-opacity="1"><g transform="translate(162.183338, 269.360052)"><g><path d="M 18.546875 -27.820312 L 22.570312 -27.820312 C 23.203125 -27.820312 23.761719 -28.03125 24.25 -28.519531 C 24.707031 -28.976562 24.949219 -29.535156 24.949219 -30.234375 L 24.949219 -32.371094 C 24.949219 -33.035156 24.707031 -33.59375 24.25 -34.085938 C 23.761719 -34.539062 23.203125 -34.785156 22.570312 -34.785156 L 18.546875 -34.785156 C 15.992188 -34.785156 13.683594 -34.292969 11.582031 -33.351562 C 9.484375 -32.371094 7.699219 -30.96875 6.160156 -29.152344 C 4.828125 -27.574219 3.8125 -25.789062 3.113281 -23.761719 C 2.414062 -21.730469 2.101562 -19.632812 2.101562 -17.390625 C 2.101562 -15.222656 2.449219 -13.089844 3.148438 -11.023438 C 3.847656 -8.921875 4.863281 -7.070312 6.265625 -5.460938 C 7.664062 -3.8125 9.378906 -2.484375 11.410156 -1.503906 C 13.4375 -0.488281 15.816406 0 18.546875 0 L 22.570312 0 C 23.203125 0 23.761719 -0.210938 24.25 -0.699219 C 24.707031 -1.15625 24.949219 -1.714844 24.949219 -2.378906 L 24.949219 -4.515625 C 24.949219 -5.179688 24.707031 -5.738281 24.25 -6.230469 C 23.761719 -6.683594 23.203125 -6.929688 22.570312 -6.929688 L 18.546875 -6.929688 C 16.65625 -6.929688 15.082031 -7.277344 13.859375 -8.015625 C 12.632812 -8.714844 11.652344 -9.625 10.953125 -10.707031 C 10.253906 -11.757812 9.726562 -12.914062 9.449219 -14.101562 C 9.167969 -15.292969 9.027344 -16.414062 9.027344 -17.390625 C 9.027344 -18.792969 9.238281 -20.121094 9.660156 -21.382812 C 10.078125 -22.640625 10.707031 -23.761719 11.476562 -24.742188 C 13.15625 -26.769531 15.539062 -27.820312 18.546875 -27.820312 Z M 18.546875 -27.820312 "/></g></g></g><g fill="#e52687" fill-opacity="1"><g transform="translate(189.263043, 269.360052)"><g><path d="M 27.15625 -34.785156 L 22.957031 -34.785156 C 22.570312 -34.785156 22.257812 -34.644531 21.976562 -34.363281 C 21.695312 -34.085938 21.589844 -33.769531 21.589844 -33.417969 L 21.589844 -22.117188 C 21.589844 -21.765625 21.453125 -21.453125 21.207031 -21.207031 C 20.960938 -20.960938 20.683594 -20.855469 20.332031 -20.855469 L 12.386719 -20.855469 C 12.039062 -20.855469 11.722656 -20.960938 11.476562 -21.207031 C 11.234375 -21.453125 11.128906 -21.765625 11.128906 -22.117188 L 11.128906 -33.417969 C 11.128906 -33.769531 10.988281 -34.085938 10.742188 -34.363281 C 10.464844 -34.644531 10.148438 -34.785156 9.761719 -34.785156 L 5.5625 -34.785156 C 5.179688 -34.785156 4.863281 -34.644531 4.585938 -34.363281 C 4.304688 -34.085938 4.199219 -33.769531 4.199219 -33.417969 L 4.199219 -1.363281 C 4.199219 -0.980469 4.304688 -0.664062 4.585938 -0.386719 C 4.863281 -0.105469 5.179688 0 5.5625 0 L 9.761719 0 C 10.148438 0 10.464844 -0.105469 10.742188 -0.386719 C 10.988281 -0.664062 11.128906 -0.980469 11.128906 -1.363281 L 11.128906 -12.667969 C 11.128906 -13.019531 11.234375 -13.296875 11.476562 -13.542969 C 11.722656 -13.789062 12.039062 -13.929688 12.386719 -13.929688 L 20.332031 -13.929688 C 20.683594 -13.929688 20.960938 -13.789062 21.207031 -13.542969 C 21.453125 -13.296875 21.589844 -13.019531 21.589844 -12.667969 L 21.589844 -1.363281 C 21.589844 -0.980469 21.695312 -0.664062 21.976562 -0.386719 C 22.257812 -0.105469 22.570312 0 22.957031 0 L 27.15625 0 C 27.539062 0 27.855469 -0.105469 28.136719 -0.386719 C 28.378906 -0.664062 28.519531 -0.980469 28.519531 -1.363281 L 28.519531 -33.417969 C 28.519531 -33.769531 28.378906 -34.085938 28.136719 -34.363281 C 27.855469 -34.644531 27.539062 -34.785156 27.15625 -34.785156 Z M 27.15625 -34.785156 "/></g></g></g><g fill="#5e17eb" fill-opacity="1"><g transform="translate(219.902519, 269.360052)"><g><path d="M 27.121094 -34.75 L 23.203125 -34.75 C 22.78125 -34.75 22.398438 -34.574219 22.117188 -34.292969 C 21.835938 -34.015625 21.695312 -33.664062 21.695312 -33.246094 L 21.695312 -11.304688 C 21.695312 -10.21875 21.417969 -9.378906 20.925781 -8.820312 C 20.4375 -8.222656 19.875 -7.804688 19.246094 -7.523438 C 18.617188 -7.242188 18.023438 -7.070312 17.460938 -7 C 16.902344 -6.929688 16.550781 -6.929688 16.414062 -6.929688 C 16.273438 -6.929688 15.921875 -6.929688 15.363281 -7 C 14.800781 -7.070312 14.207031 -7.242188 13.578125 -7.523438 C 12.949219 -7.804688 12.351562 -8.222656 11.863281 -8.820312 C 11.375 -9.378906 11.128906 -10.21875 11.128906 -11.304688 L 11.128906 -33.246094 C 11.128906 -33.664062 10.953125 -34.015625 10.671875 -34.292969 C 10.394531 -34.574219 10.042969 -34.75 9.625 -34.75 L 5.703125 -34.75 C 5.285156 -34.75 4.898438 -34.574219 4.621094 -34.292969 C 4.339844 -34.015625 4.199219 -33.664062 4.199219 -33.246094 L 4.199219 -11.304688 C 4.199219 -9.554688 4.515625 -7.945312 5.214844 -6.472656 C 5.914062 -5.003906 6.894531 -3.746094 8.222656 -2.695312 C 9.34375 -1.785156 10.601562 -1.121094 12.003906 -0.664062 C 13.402344 -0.175781 14.871094 0.0351562 16.414062 0.0351562 C 17.953125 0.0351562 19.421875 -0.175781 20.820312 -0.664062 C 22.222656 -1.121094 23.480469 -1.785156 24.601562 -2.695312 C 25.894531 -3.746094 26.875 -5.003906 27.574219 -6.472656 C 28.277344 -7.945312 28.625 -9.554688 28.625 -11.304688 L 28.625 -33.246094 C 28.625 -33.664062 28.449219 -34.015625 28.171875 -34.292969 C 27.890625 -34.574219 27.539062 -34.75 27.121094 -34.75 Z M 27.121094 -34.75 "/></g></g></g><g fill="#5e17eb" fill-opacity="1"><g transform="translate(250.655941, 269.360052)"><g><path d="M 29.394531 -1.574219 L 20.085938 -33.804688 C 19.980469 -34.085938 19.808594 -34.292969 19.597656 -34.503906 C 19.351562 -34.679688 19.070312 -34.785156 18.792969 -34.785156 L 12.738281 -34.785156 C 12.421875 -34.785156 12.144531 -34.679688 11.933594 -34.503906 C 11.6875 -34.292969 11.511719 -34.085938 11.441406 -33.804688 L 2.132812 -1.574219 C 1.996094 -1.15625 2.066406 -0.804688 2.34375 -0.488281 C 2.589844 -0.140625 2.90625 0 3.324219 0 L 7.910156 0 C 8.1875 0 8.46875 -0.0703125 8.714844 -0.246094 C 8.921875 -0.421875 9.097656 -0.664062 9.203125 -0.980469 L 10.707031 -6.300781 C 10.777344 -6.578125 10.953125 -6.789062 11.199219 -6.964844 C 11.410156 -7.140625 11.6875 -7.242188 12.003906 -7.242188 L 19.527344 -7.242188 C 19.808594 -7.242188 20.085938 -7.140625 20.332031 -6.964844 C 20.542969 -6.789062 20.714844 -6.578125 20.820312 -6.300781 L 22.363281 -0.980469 C 22.429688 -0.664062 22.605469 -0.421875 22.851562 -0.246094 C 23.0625 -0.0703125 23.339844 0 23.65625 0 L 28.207031 0 C 28.625 0 28.941406 -0.140625 29.183594 -0.488281 C 29.429688 -0.804688 29.5 -1.15625 29.394531 -1.574219 Z M 18.058594 -14.171875 L 13.472656 -14.171875 C 13.332031 -14.171875 13.261719 -14.207031 13.191406 -14.3125 C 13.121094 -14.382812 13.089844 -14.488281 13.121094 -14.628906 L 15.433594 -22.570312 C 15.46875 -22.746094 15.574219 -22.851562 15.78125 -22.851562 C 15.957031 -22.851562 16.0625 -22.746094 16.132812 -22.570312 L 18.40625 -14.628906 C 18.441406 -14.488281 18.40625 -14.382812 18.335938 -14.3125 C 18.265625 -14.207031 18.164062 -14.171875 18.058594 -14.171875 Z M 18.058594 -14.171875 "/></g></g></g><g fill="#5e17eb" fill-opacity="1"><g transform="translate(280.114811, 269.360052)"><g><path d="M 29.394531 -1.574219 L 20.085938 -33.804688 C 19.980469 -34.085938 19.808594 -34.292969 19.597656 -34.503906 C 19.351562 -34.679688 19.070312 -34.785156 18.792969 -34.785156 L 12.738281 -34.785156 C 12.421875 -34.785156 12.144531 -34.679688 11.933594 -34.503906 C 11.6875 -34.292969 11.511719 -34.085938 11.441406 -33.804688 L 2.132812 -1.574219 C 1.996094 -1.15625 2.066406 -0.804688 2.34375 -0.488281 C 2.589844 -0.140625 2.90625 0 3.324219 0 L 7.910156 0 C 8.1875 0 8.46875 -0.0703125 8.714844 -0.246094 C 8.921875 -0.421875 9.097656 -0.664062 9.203125 -0.980469 L 10.707031 -6.300781 C 10.777344 -6.578125 10.953125 -6.789062 11.199219 -6.964844 C 11.410156 -7.140625 11.6875 -7.242188 12.003906 -7.242188 L 19.527344 -7.242188 C 19.808594 -7.242188 20.085938 -7.140625 20.332031 -6.964844 C 20.542969 -6.789062 20.714844 -6.578125 20.820312 -6.300781 L 22.363281 -0.980469 C 22.429688 -0.664062 22.605469 -0.421875 22.851562 -0.246094 C 23.0625 -0.0703125 23.339844 0 23.65625 0 L 28.207031 0 C 28.625 0 28.941406 -0.140625 29.183594 -0.488281 C 29.429688 -0.804688 29.5 -1.15625 29.394531 -1.574219 Z M 18.058594 -14.171875 L 13.472656 -14.171875 C 13.332031 -14.171875 13.261719 -14.207031 13.191406 -14.3125 C 13.121094 -14.382812 13.089844 -14.488281 13.121094 -14.628906 L 15.433594 -22.570312 C 15.46875 -22.746094 15.574219 -22.851562 15.78125 -22.851562 C 15.957031 -22.851562 16.0625 -22.746094 16.132812 -22.570312 L 18.40625 -14.628906 C 18.441406 -14.488281 18.40625 -14.382812 18.335938 -14.3125 C 18.265625 -14.207031 18.164062 -14.171875 18.058594 -14.171875 Z M 18.058594 -14.171875 "/></g></g></g><g fill="#e52687" fill-opacity="1"><g transform="translate(77.817408, 295.24914)"><g><path d="M 3.175781 -7.375 L 1.386719 -7.375 C 1.210938 -7.375 1.0625 -7.3125 0.9375 -7.1875 C 0.8125 -7.0625 0.75 -6.910156 0.75 -6.734375 L 0.75 -0.636719 C 0.75 -0.460938 0.8125 -0.3125 0.9375 -0.1875 C 1.0625 -0.0625 1.210938 0 1.386719 0 L 3.324219 0 C 3.613281 0 3.898438 -0.0234375 4.1875 -0.101562 C 4.472656 -0.164062 4.773438 -0.289062 5.085938 -0.460938 C 5.398438 -0.636719 5.671875 -0.863281 5.910156 -1.136719 C 6.136719 -1.414062 6.335938 -1.773438 6.484375 -2.238281 C 6.636719 -2.6875 6.710938 -3.210938 6.710938 -3.8125 C 6.710938 -4.4375 6.597656 -5 6.386719 -5.484375 C 6.160156 -5.960938 5.875 -6.335938 5.523438 -6.597656 C 5.171875 -6.859375 4.796875 -7.0625 4.398438 -7.1875 C 4 -7.3125 3.597656 -7.375 3.175781 -7.375 Z M 3.160156 -1.199219 L 2.011719 -1.199219 L 2.011719 -6.171875 L 3.199219 -6.171875 C 4.699219 -6.171875 5.449219 -5.375 5.449219 -3.773438 C 5.449219 -2.050781 4.6875 -1.199219 3.160156 -1.199219 Z M 3.160156 -1.199219 "/></g></g></g><g fill="#e52687" fill-opacity="1"><g transform="translate(95.08959, 295.24914)"><g><path d="M 3.488281 -7.375 C 3.261719 -7.375 3.0625 -7.296875 2.886719 -7.171875 C 2.710938 -7.035156 2.585938 -6.875 2.511719 -6.671875 L 0.351562 -0.863281 C 0.324219 -0.789062 0.3125 -0.699219 0.3125 -0.625 C 0.3125 -0.449219 0.363281 -0.300781 0.488281 -0.175781 C 0.613281 -0.0507812 0.761719 0 0.9375 0 C 1.210938 0 1.414062 -0.125 1.523438 -0.375 L 2.011719 -1.675781 L 5 -1.675781 L 5.484375 -0.375 C 5.585938 -0.125 5.785156 0 6.074219 0 C 6.25 0 6.386719 -0.0507812 6.511719 -0.175781 C 6.636719 -0.300781 6.699219 -0.449219 6.699219 -0.625 C 6.699219 -0.699219 6.6875 -0.789062 6.660156 -0.863281 L 4.5 -6.671875 C 4.425781 -6.875 4.285156 -7.046875 4.113281 -7.171875 C 3.925781 -7.296875 3.710938 -7.375 3.488281 -7.375 Z M 2.449219 -2.847656 L 3.5 -5.6875 L 4.5625 -2.847656 Z M 2.449219 -2.847656 "/></g></g></g><g fill="#e52687" fill-opacity="1"><g transform="translate(112.099373, 295.24914)"><g><path d="M 2.613281 -6.148438 L 2.613281 -0.636719 C 2.613281 -0.460938 2.675781 -0.3125 2.800781 -0.1875 C 2.925781 -0.0625 3.074219 0 3.25 0 C 3.425781 0 3.574219 -0.0625 3.699219 -0.1875 C 3.824219 -0.3125 3.886719 -0.460938 3.886719 -0.636719 L 3.886719 -6.148438 L 5.449219 -6.148438 C 5.609375 -6.148438 5.75 -6.199219 5.875 -6.324219 C 6 -6.449219 6.0625 -6.585938 6.0625 -6.761719 C 6.0625 -6.921875 6 -7.0625 5.875 -7.1875 C 5.75 -7.3125 5.609375 -7.375 5.449219 -7.375 L 1.050781 -7.375 C 0.875 -7.375 0.738281 -7.3125 0.613281 -7.1875 C 0.488281 -7.0625 0.4375 -6.921875 0.4375 -6.761719 C 0.4375 -6.585938 0.488281 -6.449219 0.613281 -6.324219 C 0.738281 -6.199219 0.875 -6.148438 1.050781 -6.148438 Z M 2.613281 -6.148438 "/></g></g></g><g fill="#e52687" fill-opacity="1"><g transform="translate(128.596863, 295.24914)"><g><path d="M 0.75 -6.773438 L 0.75 -0.601562 C 0.75 -0.425781 0.800781 -0.289062 0.925781 -0.175781 C 1.039062 -0.0507812 1.175781 0 1.351562 0 L 5.109375 0 C 5.261719 0 5.398438 -0.0507812 5.523438 -0.175781 C 5.648438 -0.289062 5.710938 -0.425781 5.710938 -0.601562 C 5.710938 -0.761719 5.648438 -0.898438 5.523438 -1.023438 C 5.398438 -1.136719 5.261719 -1.199219 5.109375 -1.199219 L 2.023438 -1.199219 L 2.023438 -2.949219 L 4.4375 -2.949219 C 4.585938 -2.949219 4.722656 -3 4.847656 -3.125 C 4.972656 -3.238281 5.035156 -3.375 5.035156 -3.550781 C 5.035156 -3.710938 4.972656 -3.847656 4.847656 -3.972656 C 4.722656 -4.085938 4.585938 -4.148438 4.4375 -4.148438 L 2.023438 -4.148438 L 2.023438 -6.171875 L 5.109375 -6.171875 C 5.261719 -6.171875 5.398438 -6.222656 5.523438 -6.347656 C 5.648438 -6.460938 5.710938 -6.597656 5.710938 -6.773438 C 5.710938 -6.9375 5.648438 -7.074219 5.523438 -7.199219 C 5.398438 -7.3125 5.261719 -7.375 5.109375 -7.375 L 1.351562 -7.375 C 1.175781 -7.375 1.039062 -7.3125 0.925781 -7.199219 C 0.800781 -7.074219 0.75 -6.9375 0.75 -6.773438 Z M 0.75 -6.773438 "/></g></g></g><g fill="#e52687" fill-opacity="1"><g transform="translate(144.931915, 295.24914)"><g/></g></g><g fill="#e52687" fill-opacity="1"><g transform="translate(157.418477, 295.24914)"><g><path d="M 6.710938 -3.347656 L 6.710938 -6.734375 C 6.710938 -6.910156 6.648438 -7.0625 6.523438 -7.1875 C 6.398438 -7.3125 6.25 -7.375 6.074219 -7.375 C 5.898438 -7.375 5.75 -7.3125 5.625 -7.1875 C 5.5 -7.0625 5.4375 -6.910156 5.4375 -6.734375 L 5.4375 -3.449219 C 5.4375 -1.910156 4.859375 -1.148438 3.722656 -1.148438 C 2.585938 -1.148438 2.023438 -1.910156 2.023438 -3.449219 L 2.023438 -6.734375 C 2.023438 -6.910156 1.960938 -7.0625 1.835938 -7.1875 C 1.710938 -7.3125 1.5625 -7.375 1.386719 -7.375 C 1.210938 -7.375 1.0625 -7.3125 0.9375 -7.1875 C 0.8125 -7.0625 0.75 -6.910156 0.75 -6.734375 L 0.75 -3.347656 C 0.75 -1.0625 1.738281 0.0742188 3.722656 0.0742188 C 5.710938 0.0742188 6.710938 -1.0625 6.710938 -3.347656 Z M 6.710938 -3.347656 "/></g></g></g><g fill="#e52687" fill-opacity="1"><g transform="translate(174.878083, 295.24914)"><g><path d="M 2.023438 -5.199219 L 5.3125 -0.375 C 5.484375 -0.125 5.75 0 6.085938 0 C 6.324219 0 6.523438 -0.0742188 6.699219 -0.25 C 6.875 -0.425781 6.960938 -0.625 6.960938 -0.875 L 6.960938 -6.734375 C 6.960938 -6.910156 6.898438 -7.0625 6.773438 -7.1875 C 6.648438 -7.3125 6.5 -7.375 6.324219 -7.375 C 6.148438 -7.375 6 -7.3125 5.875 -7.1875 C 5.75 -7.0625 5.6875 -6.910156 5.6875 -6.734375 L 5.6875 -2.085938 L 2.347656 -7 C 2.160156 -7.25 1.925781 -7.375 1.625 -7.375 C 1.375 -7.375 1.175781 -7.285156 1 -7.109375 C 0.824219 -6.9375 0.75 -6.734375 0.75 -6.5 L 0.75 -0.636719 C 0.75 -0.460938 0.8125 -0.3125 0.9375 -0.1875 C 1.0625 -0.0625 1.210938 0 1.386719 0 C 1.5625 0 1.710938 -0.0625 1.835938 -0.1875 C 1.960938 -0.3125 2.023438 -0.460938 2.023438 -0.636719 Z M 2.023438 -5.199219 "/></g></g></g><g fill="#e52687" fill-opacity="1"><g transform="translate(192.587586, 295.24914)"><g/></g></g><g fill="#e52687" fill-opacity="1"><g transform="translate(205.074155, 295.24914)"><g><path d="M 4.085938 0.0742188 C 4.824219 0.0742188 5.460938 -0.0742188 6 -0.398438 C 6.199219 -0.5 6.296875 -0.675781 6.296875 -0.914062 C 6.296875 -1.0625 6.234375 -1.199219 6.109375 -1.324219 C 5.984375 -1.4375 5.847656 -1.5 5.699219 -1.5 C 5.609375 -1.5 5.523438 -1.476562 5.449219 -1.4375 C 5.0625 -1.238281 4.597656 -1.148438 4.074219 -1.148438 C 3.863281 -1.148438 3.660156 -1.164062 3.472656 -1.199219 C 3.285156 -1.226562 3.085938 -1.300781 2.863281 -1.414062 C 2.636719 -1.523438 2.4375 -1.675781 2.273438 -1.847656 C 2.113281 -2.023438 1.972656 -2.285156 1.875 -2.613281 C 1.761719 -2.9375 1.710938 -3.324219 1.710938 -3.773438 C 1.710938 -4.25 1.773438 -4.648438 1.910156 -4.984375 C 2.050781 -5.324219 2.238281 -5.574219 2.488281 -5.75 C 2.722656 -5.910156 2.972656 -6.023438 3.222656 -6.097656 C 3.472656 -6.171875 3.761719 -6.210938 4.074219 -6.210938 C 4.597656 -6.210938 5.0625 -6.109375 5.449219 -5.921875 C 5.523438 -5.875 5.609375 -5.859375 5.699219 -5.859375 C 5.847656 -5.859375 5.984375 -5.910156 6.109375 -6.035156 C 6.234375 -6.148438 6.296875 -6.285156 6.296875 -6.449219 C 6.296875 -6.671875 6.199219 -6.847656 6 -6.960938 C 5.460938 -7.273438 4.824219 -7.4375 4.085938 -7.4375 C 3.648438 -7.4375 3.222656 -7.359375 2.8125 -7.234375 C 2.398438 -7.097656 2.011719 -6.898438 1.648438 -6.625 C 1.273438 -6.347656 0.988281 -5.972656 0.761719 -5.5 C 0.539062 -5.011719 0.4375 -4.449219 0.4375 -3.8125 C 0.4375 -3.199219 0.511719 -2.660156 0.6875 -2.1875 C 0.863281 -1.710938 1.074219 -1.335938 1.324219 -1.0625 C 1.574219 -0.789062 1.875 -0.550781 2.222656 -0.375 C 2.5625 -0.199219 2.886719 -0.0742188 3.1875 -0.0117188 C 3.488281 0.0507812 3.785156 0.0742188 4.085938 0.0742188 Z M 4.085938 0.0742188 "/></g></g></g><g fill="#e52687" fill-opacity="1"><g transform="translate(221.87152, 295.24914)"><g><path d="M 5.449219 -2.949219 L 5.449219 -0.636719 C 5.449219 -0.460938 5.511719 -0.3125 5.636719 -0.1875 C 5.761719 -0.0625 5.910156 0 6.085938 0 C 6.261719 0 6.410156 -0.0625 6.535156 -0.1875 C 6.660156 -0.3125 6.722656 -0.460938 6.722656 -0.636719 L 6.722656 -6.734375 C 6.722656 -6.910156 6.660156 -7.0625 6.535156 -7.1875 C 6.410156 -7.3125 6.261719 -7.375 6.085938 -7.375 C 5.910156 -7.375 5.761719 -7.3125 5.636719 -7.1875 C 5.511719 -7.0625 5.449219 -6.910156 5.449219 -6.734375 L 5.449219 -4.160156 L 2.023438 -4.160156 L 2.023438 -6.734375 C 2.023438 -6.910156 1.960938 -7.0625 1.835938 -7.1875 C 1.710938 -7.3125 1.5625 -7.375 1.386719 -7.375 C 1.210938 -7.375 1.0625 -7.3125 0.9375 -7.1875 C 0.8125 -7.0625 0.75 -6.910156 0.75 -6.734375 L 0.75 -0.636719 C 0.75 -0.460938 0.8125 -0.3125 0.9375 -0.1875 C 1.0625 -0.0625 1.210938 0 1.386719 0 C 1.5625 0 1.710938 -0.0625 1.835938 -0.1875 C 1.960938 -0.3125 2.023438 -0.460938 2.023438 -0.636719 L 2.023438 -2.949219 Z M 5.449219 -2.949219 "/></g></g></g><g fill="#e52687" fill-opacity="1"><g transform="translate(239.343615, 295.24914)"><g><path d="M 3.488281 -7.375 C 3.261719 -7.375 3.0625 -7.296875 2.886719 -7.171875 C 2.710938 -7.035156 2.585938 -6.875 2.511719 -6.671875 L 0.351562 -0.863281 C 0.324219 -0.789062 0.3125 -0.699219 0.3125 -0.625 C 0.3125 -0.449219 0.363281 -0.300781 0.488281 -0.175781 C 0.613281 -0.0507812 0.761719 0 0.9375 0 C 1.210938 0 1.414062 -0.125 1.523438 -0.375 L 2.011719 -1.675781 L 5 -1.675781 L 5.484375 -0.375 C 5.585938 -0.125 5.785156 0 6.074219 0 C 6.25 0 6.386719 -0.0507812 6.511719 -0.175781 C 6.636719 -0.300781 6.699219 -0.449219 6.699219 -0.625 C 6.699219 -0.699219 6.6875 -0.789062 6.660156 -0.863281 L 4.5 -6.671875 C 4.425781 -6.875 4.285156 -7.046875 4.113281 -7.171875 C 3.925781 -7.296875 3.710938 -7.375 3.488281 -7.375 Z M 2.449219 -2.847656 L 3.5 -5.6875 L 4.5625 -2.847656 Z M 2.449219 -2.847656 "/></g></g></g><g fill="#e52687" fill-opacity="1"><g transform="translate(256.353396, 295.24914)"><g><path d="M 2.023438 -5.199219 L 5.3125 -0.375 C 5.484375 -0.125 5.75 0 6.085938 0 C 6.324219 0 6.523438 -0.0742188 6.699219 -0.25 C 6.875 -0.425781 6.960938 -0.625 6.960938 -0.875 L 6.960938 -6.734375 C 6.960938 -6.910156 6.898438 -7.0625 6.773438 -7.1875 C 6.648438 -7.3125 6.5 -7.375 6.324219 -7.375 C 6.148438 -7.375 6 -7.3125 5.875 -7.1875 C 5.75 -7.0625 5.6875 -6.910156 5.6875 -6.734375 L 5.6875 -2.085938 L 2.347656 -7 C 2.160156 -7.25 1.925781 -7.375 1.625 -7.375 C 1.375 -7.375 1.175781 -7.285156 1 -7.109375 C 0.824219 -6.9375 0.75 -6.734375 0.75 -6.5 L 0.75 -0.636719 C 0.75 -0.460938 0.8125 -0.3125 0.9375 -0.1875 C 1.0625 -0.0625 1.210938 0 1.386719 0 C 1.5625 0 1.710938 -0.0625 1.835938 -0.1875 C 1.960938 -0.3125 2.023438 -0.460938 2.023438 -0.636719 Z M 2.023438 -5.199219 "/></g></g></g><g fill="#e52687" fill-opacity="1"><g transform="translate(274.062898, 295.24914)"><g><path d="M 4.085938 0.0742188 C 4.824219 0.0742188 5.460938 -0.0742188 6 -0.398438 C 6.199219 -0.5 6.296875 -0.675781 6.296875 -0.914062 C 6.296875 -1.0625 6.234375 -1.199219 6.109375 -1.324219 C 5.984375 -1.4375 5.847656 -1.5 5.699219 -1.5 C 5.609375 -1.5 5.523438 -1.476562 5.449219 -1.4375 C 5.0625 -1.238281 4.597656 -1.148438 4.074219 -1.148438 C 3.863281 -1.148438 3.660156 -1.164062 3.472656 -1.199219 C 3.285156 -1.226562 3.085938 -1.300781 2.863281 -1.414062 C 2.636719 -1.523438 2.4375 -1.675781 2.273438 -1.847656 C 2.113281 -2.023438 1.972656 -2.285156 1.875 -2.613281 C 1.761719 -2.9375 1.710938 -3.324219 1.710938 -3.773438 C 1.710938 -4.25 1.773438 -4.648438 1.910156 -4.984375 C 2.050781 -5.324219 2.238281 -5.574219 2.488281 -5.75 C 2.722656 -5.910156 2.972656 -6.023438 3.222656 -6.097656 C 3.472656 -6.171875 3.761719 -6.210938 4.074219 -6.210938 C 4.597656 -6.210938 5.0625 -6.109375 5.449219 -5.921875 C 5.523438 -5.875 5.609375 -5.859375 5.699219 -5.859375 C 5.847656 -5.859375 5.984375 -5.910156 6.109375 -6.035156 C 6.234375 -6.148438 6.296875 -6.285156 6.296875 -6.449219 C 6.296875 -6.671875 6.199219 -6.847656 6 -6.960938 C 5.460938 -7.273438 4.824219 -7.4375 4.085938 -7.4375 C 3.648438 -7.4375 3.222656 -7.359375 2.8125 -7.234375 C 2.398438 -7.097656 2.011719 -6.898438 1.648438 -6.625 C 1.273438 -6.347656 0.988281 -5.972656 0.761719 -5.5 C 0.539062 -5.011719 0.4375 -4.449219 0.4375 -3.8125 C 0.4375 -3.199219 0.511719 -2.660156 0.6875 -2.1875 C 0.863281 -1.710938 1.074219 -1.335938 1.324219 -1.0625 C 1.574219 -0.789062 1.875 -0.550781 2.222656 -0.375 C 2.5625 -0.199219 2.886719 -0.0742188 3.1875 -0.0117188 C 3.488281 0.0507812 3.785156 0.0742188 4.085938 0.0742188 Z M 4.085938 0.0742188 "/></g></g></g><g fill="#e52687" fill-opacity="1"><g transform="translate(290.860264, 295.24914)"><g><path d="M 0.75 -6.773438 L 0.75 -0.601562 C 0.75 -0.425781 0.800781 -0.289062 0.925781 -0.175781 C 1.039062 -0.0507812 1.175781 0 1.351562 0 L 5.109375 0 C 5.261719 0 5.398438 -0.0507812 5.523438 -0.175781 C 5.648438 -0.289062 5.710938 -0.425781 5.710938 -0.601562 C 5.710938 -0.761719 5.648438 -0.898438 5.523438 -1.023438 C 5.398438 -1.136719 5.261719 -1.199219 5.109375 -1.199219 L 2.023438 -1.199219 L 2.023438 -2.949219 L 4.4375 -2.949219 C 4.585938 -2.949219 4.722656 -3 4.847656 -3.125 C 4.972656 -3.238281 5.035156 -3.375 5.035156 -3.550781 C 5.035156 -3.710938 4.972656 -3.847656 4.847656 -3.972656 C 4.722656 -4.085938 4.585938 -4.148438 4.4375 -4.148438 L 2.023438 -4.148438 L 2.023438 -6.171875 L 5.109375 -6.171875 C 5.261719 -6.171875 5.398438 -6.222656 5.523438 -6.347656 C 5.648438 -6.460938 5.710938 -6.597656 5.710938 -6.773438 C 5.710938 -6.9375 5.648438 -7.074219 5.523438 -7.199219 C 5.398438 -7.3125 5.261719 -7.375 5.109375 -7.375 L 1.351562 -7.375 C 1.175781 -7.375 1.039062 -7.3125 0.925781 -7.199219 C 0.800781 -7.074219 0.75 -6.9375 0.75 -6.773438 Z M 0.75 -6.773438 "/></g></g></g></svg>