<svg xmlns="http://www.w3.org/2000/svg" xmlns:xlink="http://www.w3.org/1999/xlink" width="500" zoomAndPan="magnify" viewBox="0 0 375 74.999997" height="100" preserveAspectRatio="xMidYMid meet" version="1.0"><defs><g/></defs><g fill="#ffffff" fill-opacity="1"><g transform="translate(68.278003, 57.679917)"><g><path d="M 33.761719 -33.394531 L 30.371094 -33.394531 C 29.328125 -33.394531 28.421875 -33.023438 27.683594 -32.351562 L 20.390625 -25.667969 C 20.191406 -25.464844 19.988281 -25.398438 19.753906 -25.398438 C 19.484375 -25.398438 19.285156 -25.464844 19.117188 -25.667969 L 11.824219 -32.351562 C 11.050781 -33.023438 10.144531 -33.394531 9.136719 -33.394531 L 5.746094 -33.394531 C 5.273438 -33.394531 4.871094 -33.226562 4.535156 -32.890625 C 4.199219 -32.554688 4.03125 -32.148438 4.03125 -31.679688 L 4.03125 -1.714844 C 4.03125 -1.242188 4.199219 -0.839844 4.535156 -0.503906 C 4.871094 -0.167969 5.273438 0 5.746094 0 L 8.96875 0 C 9.441406 0 9.84375 -0.167969 10.179688 -0.503906 C 10.515625 -0.839844 10.683594 -1.242188 10.683594 -1.714844 L 10.683594 -22.238281 C 10.683594 -22.441406 10.714844 -22.609375 10.816406 -22.742188 C 10.917969 -22.878906 11.050781 -23.011719 11.21875 -23.078125 C 11.355469 -23.148438 11.523438 -23.148438 11.722656 -23.148438 C 11.890625 -23.113281 12.058594 -23.046875 12.226562 -22.910156 L 18.578125 -17 C 18.914062 -16.664062 19.285156 -16.527344 19.753906 -16.527344 C 20.191406 -16.527344 20.558594 -16.664062 20.894531 -17 L 27.277344 -22.910156 C 27.414062 -23.046875 27.582031 -23.113281 27.78125 -23.148438 C 27.949219 -23.148438 28.117188 -23.148438 28.285156 -23.078125 C 28.421875 -23.011719 28.554688 -22.878906 28.65625 -22.742188 C 28.757812 -22.609375 28.824219 -22.441406 28.824219 -22.238281 L 28.824219 -1.714844 C 28.824219 -1.242188 28.992188 -0.839844 29.328125 -0.503906 C 29.664062 -0.167969 30.066406 0 30.539062 0 L 33.761719 0 C 34.234375 0 34.636719 -0.167969 34.972656 -0.503906 C 35.308594 -0.839844 35.476562 -1.242188 35.476562 -1.714844 L 35.476562 -31.679688 C 35.476562 -32.148438 35.308594 -32.554688 34.972656 -32.890625 C 34.636719 -33.226562 34.234375 -33.394531 33.761719 -33.394531 Z M 33.761719 -33.394531 "/></g></g></g><g fill="#ffffff" fill-opacity="1"><g transform="translate(105.761679, 57.679917)"><g><path d="M 28.21875 -1.511719 L 19.285156 -32.453125 C 19.183594 -32.722656 19.015625 -32.921875 18.8125 -33.125 C 18.578125 -33.292969 18.308594 -33.394531 18.039062 -33.394531 L 12.226562 -33.394531 C 11.925781 -33.394531 11.65625 -33.292969 11.457031 -33.125 C 11.21875 -32.921875 11.050781 -32.722656 10.984375 -32.453125 L 2.050781 -1.511719 C 1.914062 -1.109375 1.980469 -0.773438 2.25 -0.46875 C 2.484375 -0.132812 2.789062 0 3.191406 0 L 7.59375 0 C 7.859375 0 8.128906 -0.0664062 8.363281 -0.234375 C 8.566406 -0.402344 8.734375 -0.636719 8.835938 -0.941406 L 10.28125 -6.046875 C 10.347656 -6.316406 10.515625 -6.515625 10.75 -6.683594 C 10.953125 -6.851562 11.21875 -6.953125 11.523438 -6.953125 L 18.746094 -6.953125 C 19.015625 -6.953125 19.285156 -6.851562 19.519531 -6.683594 C 19.71875 -6.515625 19.886719 -6.316406 19.988281 -6.046875 L 21.46875 -0.941406 C 21.535156 -0.636719 21.703125 -0.402344 21.9375 -0.234375 C 22.140625 -0.0664062 22.40625 0 22.710938 0 L 27.078125 0 C 27.480469 0 27.78125 -0.132812 28.019531 -0.46875 C 28.253906 -0.773438 28.320312 -1.109375 28.21875 -1.511719 Z M 17.335938 -13.605469 L 12.933594 -13.605469 C 12.800781 -13.605469 12.730469 -13.640625 12.664062 -13.742188 C 12.597656 -13.808594 12.5625 -13.910156 12.597656 -14.042969 L 14.816406 -21.667969 C 14.847656 -21.835938 14.949219 -21.9375 15.152344 -21.9375 C 15.320312 -21.9375 15.421875 -21.835938 15.488281 -21.667969 L 17.671875 -14.042969 C 17.703125 -13.910156 17.671875 -13.808594 17.605469 -13.742188 C 17.535156 -13.640625 17.4375 -13.605469 17.335938 -13.605469 Z M 17.335938 -13.605469 "/></g></g></g><g fill="#ffffff" fill-opacity="1"><g transform="translate(134.042193, 57.679917)"><g><path d="M 25.128906 -33.394531 L 6.011719 -33.394531 C 5.441406 -33.394531 4.972656 -33.191406 4.601562 -32.789062 C 4.199219 -32.386719 4.03125 -31.949219 4.03125 -31.410156 L 4.03125 -28.722656 C 4.03125 -28.152344 4.199219 -27.683594 4.601562 -27.3125 C 4.972656 -26.910156 5.441406 -26.742188 6.011719 -26.742188 L 11.355469 -26.742188 C 11.589844 -26.742188 11.792969 -26.640625 11.992188 -26.472656 C 12.160156 -26.269531 12.261719 -26.070312 12.261719 -25.835938 L 12.261719 -1.980469 C 12.261719 -1.445312 12.429688 -0.972656 12.832031 -0.570312 C 13.238281 -0.167969 13.707031 0 14.246094 0 L 16.933594 0 C 17.46875 0 17.941406 -0.167969 18.34375 -0.570312 C 18.710938 -0.972656 18.914062 -1.445312 18.914062 -1.980469 L 18.914062 -25.835938 C 18.914062 -26.070312 18.980469 -26.269531 19.183594 -26.472656 C 19.351562 -26.640625 19.550781 -26.742188 19.820312 -26.742188 L 25.128906 -26.742188 C 25.667969 -26.742188 26.136719 -26.910156 26.539062 -27.3125 C 26.941406 -27.683594 27.144531 -28.152344 27.144531 -28.722656 L 27.144531 -31.410156 C 27.144531 -31.949219 26.941406 -32.386719 26.539062 -32.789062 C 26.136719 -33.191406 25.667969 -33.394531 25.128906 -33.394531 Z M 25.128906 -33.394531 "/></g></g></g><g fill="#ffffff" fill-opacity="1"><g transform="translate(163.196, 57.679917)"><g><path d="M 17.804688 -26.707031 L 21.667969 -26.707031 C 22.273438 -26.707031 22.8125 -26.910156 23.28125 -27.378906 C 23.71875 -27.816406 23.953125 -28.355469 23.953125 -29.027344 L 23.953125 -31.074219 C 23.953125 -31.714844 23.71875 -32.25 23.28125 -32.722656 C 22.8125 -33.15625 22.273438 -33.394531 21.667969 -33.394531 L 17.804688 -33.394531 C 15.351562 -33.394531 13.136719 -32.921875 11.121094 -32.015625 C 9.105469 -31.074219 7.390625 -29.730469 5.914062 -27.984375 C 4.636719 -26.472656 3.660156 -24.757812 2.988281 -22.8125 C 2.316406 -20.863281 2.015625 -18.847656 2.015625 -16.695312 C 2.015625 -14.613281 2.351562 -12.5625 3.023438 -10.582031 C 3.695312 -8.566406 4.667969 -6.785156 6.011719 -5.242188 C 7.355469 -3.660156 9.003906 -2.386719 10.953125 -1.445312 C 12.898438 -0.46875 15.183594 0 17.804688 0 L 21.667969 0 C 22.273438 0 22.8125 -0.203125 23.28125 -0.671875 C 23.71875 -1.109375 23.953125 -1.644531 23.953125 -2.285156 L 23.953125 -4.332031 C 23.953125 -4.972656 23.71875 -5.507812 23.28125 -5.980469 C 22.8125 -6.417969 22.273438 -6.652344 21.667969 -6.652344 L 17.804688 -6.652344 C 15.992188 -6.652344 14.480469 -6.988281 13.304688 -7.691406 C 12.128906 -8.363281 11.1875 -9.238281 10.515625 -10.28125 C 9.84375 -11.289062 9.339844 -12.394531 9.070312 -13.539062 C 8.800781 -14.679688 8.667969 -15.757812 8.667969 -16.695312 C 8.667969 -18.039062 8.867188 -19.316406 9.273438 -20.527344 C 9.675781 -21.734375 10.28125 -22.8125 11.019531 -23.75 C 12.632812 -25.699219 14.917969 -26.707031 17.804688 -26.707031 Z M 17.804688 -26.707031 "/></g></g></g><g fill="#ffffff" fill-opacity="1"><g transform="translate(189.192516, 57.679917)"><g><path d="M 26.070312 -33.394531 L 22.039062 -33.394531 C 21.667969 -33.394531 21.367188 -33.257812 21.097656 -32.988281 C 20.828125 -32.722656 20.726562 -32.417969 20.726562 -32.082031 L 20.726562 -21.230469 C 20.726562 -20.894531 20.59375 -20.59375 20.359375 -20.359375 C 20.125 -20.125 19.855469 -20.023438 19.519531 -20.023438 L 11.890625 -20.023438 C 11.554688 -20.023438 11.253906 -20.125 11.019531 -20.359375 C 10.785156 -20.59375 10.683594 -20.894531 10.683594 -21.230469 L 10.683594 -32.082031 C 10.683594 -32.417969 10.546875 -32.722656 10.3125 -32.988281 C 10.042969 -33.257812 9.742188 -33.394531 9.371094 -33.394531 L 5.339844 -33.394531 C 4.972656 -33.394531 4.667969 -33.257812 4.402344 -32.988281 C 4.132812 -32.722656 4.03125 -32.417969 4.03125 -32.082031 L 4.03125 -1.308594 C 4.03125 -0.941406 4.132812 -0.636719 4.402344 -0.371094 C 4.667969 -0.101562 4.972656 0 5.339844 0 L 9.371094 0 C 9.742188 0 10.042969 -0.101562 10.3125 -0.371094 C 10.546875 -0.636719 10.683594 -0.941406 10.683594 -1.308594 L 10.683594 -12.160156 C 10.683594 -12.496094 10.785156 -12.765625 11.019531 -13 C 11.253906 -13.238281 11.554688 -13.371094 11.890625 -13.371094 L 19.519531 -13.371094 C 19.855469 -13.371094 20.125 -13.238281 20.359375 -13 C 20.59375 -12.765625 20.726562 -12.496094 20.726562 -12.160156 L 20.726562 -1.308594 C 20.726562 -0.941406 20.828125 -0.636719 21.097656 -0.371094 C 21.367188 -0.101562 21.667969 0 22.039062 0 L 26.070312 0 C 26.4375 0 26.742188 -0.101562 27.011719 -0.371094 C 27.246094 -0.636719 27.378906 -0.941406 27.378906 -1.308594 L 27.378906 -32.082031 C 27.378906 -32.417969 27.246094 -32.722656 27.011719 -32.988281 C 26.742188 -33.257812 26.4375 -33.394531 26.070312 -33.394531 Z M 26.070312 -33.394531 "/></g></g></g><g fill="#ffffff" fill-opacity="1"><g transform="translate(218.615029, 57.679917)"><g><path d="M 26.035156 -33.359375 L 22.273438 -33.359375 C 21.871094 -33.359375 21.5 -33.191406 21.230469 -32.921875 C 20.964844 -32.652344 20.828125 -32.316406 20.828125 -31.914062 L 20.828125 -10.851562 C 20.828125 -9.808594 20.558594 -9.003906 20.089844 -8.464844 C 19.621094 -7.894531 19.082031 -7.492188 18.476562 -7.222656 C 17.871094 -6.953125 17.300781 -6.785156 16.765625 -6.71875 C 16.226562 -6.652344 15.890625 -6.652344 15.757812 -6.652344 C 15.621094 -6.652344 15.285156 -6.652344 14.75 -6.71875 C 14.210938 -6.785156 13.640625 -6.953125 13.035156 -7.222656 C 12.429688 -7.492188 11.859375 -7.894531 11.386719 -8.464844 C 10.917969 -9.003906 10.683594 -9.808594 10.683594 -10.851562 L 10.683594 -31.914062 C 10.683594 -32.316406 10.515625 -32.652344 10.246094 -32.921875 C 9.976562 -33.191406 9.640625 -33.359375 9.238281 -33.359375 L 5.476562 -33.359375 C 5.074219 -33.359375 4.703125 -33.191406 4.433594 -32.921875 C 4.164062 -32.652344 4.03125 -32.316406 4.03125 -31.914062 L 4.03125 -10.851562 C 4.03125 -9.171875 4.332031 -7.625 5.003906 -6.214844 C 5.675781 -4.804688 6.617188 -3.59375 7.894531 -2.585938 C 8.96875 -1.714844 10.179688 -1.074219 11.523438 -0.636719 C 12.867188 -0.167969 14.277344 0.0351562 15.757812 0.0351562 C 17.234375 0.0351562 18.644531 -0.167969 19.988281 -0.636719 C 21.332031 -1.074219 22.542969 -1.714844 23.617188 -2.585938 C 24.859375 -3.59375 25.800781 -4.804688 26.472656 -6.214844 C 27.144531 -7.625 27.480469 -9.171875 27.480469 -10.851562 L 27.480469 -31.914062 C 27.480469 -32.316406 27.3125 -32.652344 27.042969 -32.921875 C 26.773438 -33.191406 26.4375 -33.359375 26.035156 -33.359375 Z M 26.035156 -33.359375 "/></g></g></g><g fill="#ffffff" fill-opacity="1"><g transform="translate(248.138305, 57.679917)"><g><path d="M 28.21875 -1.511719 L 19.285156 -32.453125 C 19.183594 -32.722656 19.015625 -32.921875 18.8125 -33.125 C 18.578125 -33.292969 18.308594 -33.394531 18.039062 -33.394531 L 12.226562 -33.394531 C 11.925781 -33.394531 11.65625 -33.292969 11.457031 -33.125 C 11.21875 -32.921875 11.050781 -32.722656 10.984375 -32.453125 L 2.050781 -1.511719 C 1.914062 -1.109375 1.980469 -0.773438 2.25 -0.46875 C 2.484375 -0.132812 2.789062 0 3.191406 0 L 7.59375 0 C 7.859375 0 8.128906 -0.0664062 8.363281 -0.234375 C 8.566406 -0.402344 8.734375 -0.636719 8.835938 -0.941406 L 10.28125 -6.046875 C 10.347656 -6.316406 10.515625 -6.515625 10.75 -6.683594 C 10.953125 -6.851562 11.21875 -6.953125 11.523438 -6.953125 L 18.746094 -6.953125 C 19.015625 -6.953125 19.285156 -6.851562 19.519531 -6.683594 C 19.71875 -6.515625 19.886719 -6.316406 19.988281 -6.046875 L 21.46875 -0.941406 C 21.535156 -0.636719 21.703125 -0.402344 21.9375 -0.234375 C 22.140625 -0.0664062 22.40625 0 22.710938 0 L 27.078125 0 C 27.480469 0 27.78125 -0.132812 28.019531 -0.46875 C 28.253906 -0.773438 28.320312 -1.109375 28.21875 -1.511719 Z M 17.335938 -13.605469 L 12.933594 -13.605469 C 12.800781 -13.605469 12.730469 -13.640625 12.664062 -13.742188 C 12.597656 -13.808594 12.5625 -13.910156 12.597656 -14.042969 L 14.816406 -21.667969 C 14.847656 -21.835938 14.949219 -21.9375 15.152344 -21.9375 C 15.320312 -21.9375 15.421875 -21.835938 15.488281 -21.667969 L 17.671875 -14.042969 C 17.703125 -13.910156 17.671875 -13.808594 17.605469 -13.742188 C 17.535156 -13.640625 17.4375 -13.605469 17.335938 -13.605469 Z M 17.335938 -13.605469 "/></g></g></g><g fill="#ffffff" fill-opacity="1"><g transform="translate(276.418811, 57.679917)"><g><path d="M 28.21875 -1.511719 L 19.285156 -32.453125 C 19.183594 -32.722656 19.015625 -32.921875 18.8125 -33.125 C 18.578125 -33.292969 18.308594 -33.394531 18.039062 -33.394531 L 12.226562 -33.394531 C 11.925781 -33.394531 11.65625 -33.292969 11.457031 -33.125 C 11.21875 -32.921875 11.050781 -32.722656 10.984375 -32.453125 L 2.050781 -1.511719 C 1.914062 -1.109375 1.980469 -0.773438 2.25 -0.46875 C 2.484375 -0.132812 2.789062 0 3.191406 0 L 7.59375 0 C 7.859375 0 8.128906 -0.0664062 8.363281 -0.234375 C 8.566406 -0.402344 8.734375 -0.636719 8.835938 -0.941406 L 10.28125 -6.046875 C 10.347656 -6.316406 10.515625 -6.515625 10.75 -6.683594 C 10.953125 -6.851562 11.21875 -6.953125 11.523438 -6.953125 L 18.746094 -6.953125 C 19.015625 -6.953125 19.285156 -6.851562 19.519531 -6.683594 C 19.71875 -6.515625 19.886719 -6.316406 19.988281 -6.046875 L 21.46875 -0.941406 C 21.535156 -0.636719 21.703125 -0.402344 21.9375 -0.234375 C 22.140625 -0.0664062 22.40625 0 22.710938 0 L 27.078125 0 C 27.480469 0 27.78125 -0.132812 28.019531 -0.46875 C 28.253906 -0.773438 28.320312 -1.109375 28.21875 -1.511719 Z M 17.335938 -13.605469 L 12.933594 -13.605469 C 12.800781 -13.605469 12.730469 -13.640625 12.664062 -13.742188 C 12.597656 -13.808594 12.5625 -13.910156 12.597656 -14.042969 L 14.816406 -21.667969 C 14.847656 -21.835938 14.949219 -21.9375 15.152344 -21.9375 C 15.320312 -21.9375 15.421875 -21.835938 15.488281 -21.667969 L 17.671875 -14.042969 C 17.703125 -13.910156 17.671875 -13.808594 17.605469 -13.742188 C 17.535156 -13.640625 17.4375 -13.605469 17.335938 -13.605469 Z M 17.335938 -13.605469 "/></g></g></g></svg>