<svg xmlns="http://www.w3.org/2000/svg" xmlns:xlink="http://www.w3.org/1999/xlink" width="500" zoomAndPan="magnify" viewBox="0 0 375 74.999997" height="100" preserveAspectRatio="xMidYMid meet" version="1.0"><defs><g/></defs><g fill="#e52687" fill-opacity="1"><g transform="translate(119.999998, 48.803762)"><g><path d="M 18.597656 -18.394531 L 16.730469 -18.394531 C 16.15625 -18.394531 15.65625 -18.191406 15.25 -17.820312 L 11.234375 -14.140625 C 11.121094 -14.027344 11.011719 -13.992188 10.882812 -13.992188 C 10.734375 -13.992188 10.621094 -14.027344 10.53125 -14.140625 L 6.515625 -17.820312 C 6.089844 -18.191406 5.589844 -18.394531 5.035156 -18.394531 L 3.164062 -18.394531 C 2.90625 -18.394531 2.683594 -18.304688 2.5 -18.117188 C 2.3125 -17.933594 2.222656 -17.710938 2.222656 -17.453125 L 2.222656 -0.945312 C 2.222656 -0.683594 2.3125 -0.460938 2.5 -0.277344 C 2.683594 -0.09375 2.90625 0 3.164062 0 L 4.941406 0 C 5.199219 0 5.421875 -0.09375 5.609375 -0.277344 C 5.792969 -0.460938 5.886719 -0.683594 5.886719 -0.945312 L 5.886719 -12.25 C 5.886719 -12.363281 5.902344 -12.453125 5.960938 -12.527344 C 6.015625 -12.601562 6.089844 -12.675781 6.179688 -12.714844 C 6.253906 -12.75 6.347656 -12.75 6.457031 -12.75 C 6.550781 -12.734375 6.644531 -12.695312 6.738281 -12.621094 L 10.234375 -9.363281 C 10.417969 -9.179688 10.621094 -9.105469 10.882812 -9.105469 C 11.121094 -9.105469 11.324219 -9.179688 11.511719 -9.363281 L 15.027344 -12.621094 C 15.101562 -12.695312 15.195312 -12.734375 15.304688 -12.75 C 15.398438 -12.75 15.488281 -12.75 15.582031 -12.714844 C 15.65625 -12.675781 15.730469 -12.601562 15.785156 -12.527344 C 15.839844 -12.453125 15.878906 -12.363281 15.878906 -12.25 L 15.878906 -0.945312 C 15.878906 -0.683594 15.972656 -0.460938 16.15625 -0.277344 C 16.339844 -0.09375 16.5625 0 16.824219 0 L 18.597656 0 C 18.859375 0 19.082031 -0.09375 19.265625 -0.277344 C 19.449219 -0.460938 19.542969 -0.683594 19.542969 -0.945312 L 19.542969 -17.453125 C 19.542969 -17.710938 19.449219 -17.933594 19.265625 -18.117188 C 19.082031 -18.304688 18.859375 -18.394531 18.597656 -18.394531 Z M 18.597656 -18.394531 "/></g></g></g><g fill="#e52687" fill-opacity="1"><g transform="translate(140.651234, 48.803762)"><g><path d="M 15.546875 -0.832031 L 10.621094 -17.878906 C 10.566406 -18.023438 10.476562 -18.136719 10.363281 -18.246094 C 10.234375 -18.339844 10.085938 -18.394531 9.9375 -18.394531 L 6.738281 -18.394531 C 6.570312 -18.394531 6.421875 -18.339844 6.3125 -18.246094 C 6.179688 -18.136719 6.089844 -18.023438 6.050781 -17.878906 L 1.128906 -0.832031 C 1.054688 -0.609375 1.09375 -0.425781 1.238281 -0.257812 C 1.371094 -0.0742188 1.535156 0 1.757812 0 L 4.183594 0 C 4.332031 0 4.480469 -0.0351562 4.609375 -0.128906 C 4.71875 -0.222656 4.8125 -0.351562 4.867188 -0.519531 L 5.664062 -3.332031 C 5.699219 -3.480469 5.792969 -3.589844 5.921875 -3.683594 C 6.03125 -3.773438 6.179688 -3.832031 6.347656 -3.832031 L 10.328125 -3.832031 C 10.476562 -3.832031 10.621094 -3.773438 10.753906 -3.683594 C 10.863281 -3.589844 10.957031 -3.480469 11.011719 -3.332031 L 11.824219 -0.519531 C 11.863281 -0.351562 11.957031 -0.222656 12.085938 -0.128906 C 12.195312 -0.0351562 12.34375 0 12.511719 0 L 14.917969 0 C 15.136719 0 15.304688 -0.0742188 15.433594 -0.257812 C 15.5625 -0.425781 15.601562 -0.609375 15.546875 -0.832031 Z M 9.550781 -7.496094 L 7.125 -7.496094 C 7.050781 -7.496094 7.015625 -7.511719 6.976562 -7.570312 C 6.941406 -7.605469 6.921875 -7.660156 6.941406 -7.734375 L 8.160156 -11.9375 C 8.179688 -12.027344 8.234375 -12.085938 8.347656 -12.085938 C 8.4375 -12.085938 8.496094 -12.027344 8.53125 -11.9375 L 9.734375 -7.734375 C 9.753906 -7.660156 9.734375 -7.605469 9.699219 -7.570312 C 9.660156 -7.511719 9.605469 -7.496094 9.550781 -7.496094 Z M 9.550781 -7.496094 "/></g></g></g><g fill="#e52687" fill-opacity="1"><g transform="translate(156.232123, 48.803762)"><g><path d="M 13.84375 -18.394531 L 3.3125 -18.394531 C 2.996094 -18.394531 2.738281 -18.285156 2.535156 -18.0625 C 2.3125 -17.839844 2.222656 -17.601562 2.222656 -17.304688 L 2.222656 -15.824219 C 2.222656 -15.507812 2.3125 -15.25 2.535156 -15.046875 C 2.738281 -14.824219 2.996094 -14.730469 3.3125 -14.730469 L 6.253906 -14.730469 C 6.382812 -14.730469 6.496094 -14.675781 6.605469 -14.582031 C 6.699219 -14.472656 6.753906 -14.359375 6.753906 -14.230469 L 6.753906 -1.09375 C 6.753906 -0.796875 6.847656 -0.535156 7.070312 -0.316406 C 7.292969 -0.09375 7.550781 0 7.847656 0 L 9.328125 0 C 9.625 0 9.882812 -0.09375 10.105469 -0.316406 C 10.308594 -0.535156 10.417969 -0.796875 10.417969 -1.09375 L 10.417969 -14.230469 C 10.417969 -14.359375 10.457031 -14.472656 10.566406 -14.582031 C 10.660156 -14.675781 10.769531 -14.730469 10.917969 -14.730469 L 13.84375 -14.730469 C 14.140625 -14.730469 14.398438 -14.824219 14.621094 -15.046875 C 14.84375 -15.25 14.953125 -15.507812 14.953125 -15.824219 L 14.953125 -17.304688 C 14.953125 -17.601562 14.84375 -17.839844 14.621094 -18.0625 C 14.398438 -18.285156 14.140625 -18.394531 13.84375 -18.394531 Z M 13.84375 -18.394531 "/></g></g></g><g fill="#e52687" fill-opacity="1"><g transform="translate(172.294142, 48.803762)"><g><path d="M 9.808594 -14.710938 L 11.9375 -14.710938 C 12.269531 -14.710938 12.566406 -14.824219 12.824219 -15.082031 C 13.066406 -15.324219 13.195312 -15.621094 13.195312 -15.988281 L 13.195312 -17.117188 C 13.195312 -17.46875 13.066406 -17.765625 12.824219 -18.023438 C 12.566406 -18.265625 12.269531 -18.394531 11.9375 -18.394531 L 9.808594 -18.394531 C 8.457031 -18.394531 7.234375 -18.136719 6.125 -17.636719 C 5.015625 -17.117188 4.070312 -16.378906 3.257812 -15.414062 C 2.554688 -14.582031 2.015625 -13.640625 1.648438 -12.566406 C 1.277344 -11.492188 1.109375 -10.382812 1.109375 -9.199219 C 1.109375 -8.050781 1.296875 -6.921875 1.664062 -5.828125 C 2.035156 -4.71875 2.574219 -3.738281 3.3125 -2.886719 C 4.054688 -2.015625 4.960938 -1.3125 6.03125 -0.796875 C 7.105469 -0.257812 8.363281 0 9.808594 0 L 11.9375 0 C 12.269531 0 12.566406 -0.109375 12.824219 -0.371094 C 13.066406 -0.609375 13.195312 -0.90625 13.195312 -1.257812 L 13.195312 -2.386719 C 13.195312 -2.738281 13.066406 -3.035156 12.824219 -3.292969 C 12.566406 -3.535156 12.269531 -3.664062 11.9375 -3.664062 L 9.808594 -3.664062 C 8.808594 -3.664062 7.976562 -3.847656 7.328125 -4.238281 C 6.679688 -4.609375 6.164062 -5.089844 5.792969 -5.664062 C 5.421875 -6.21875 5.144531 -6.828125 4.996094 -7.457031 C 4.847656 -8.085938 4.773438 -8.679688 4.773438 -9.199219 C 4.773438 -9.9375 4.886719 -10.640625 5.109375 -11.308594 C 5.328125 -11.972656 5.664062 -12.566406 6.070312 -13.085938 C 6.957031 -14.15625 8.21875 -14.710938 9.808594 -14.710938 Z M 9.808594 -14.710938 "/></g></g></g><g fill="#e52687" fill-opacity="1"><g transform="translate(186.616692, 48.803762)"><g><path d="M 14.359375 -18.394531 L 12.140625 -18.394531 C 11.9375 -18.394531 11.769531 -18.320312 11.621094 -18.171875 C 11.472656 -18.023438 11.417969 -17.859375 11.417969 -17.671875 L 11.417969 -11.695312 C 11.417969 -11.511719 11.34375 -11.34375 11.214844 -11.214844 C 11.085938 -11.085938 10.9375 -11.03125 10.753906 -11.03125 L 6.550781 -11.03125 C 6.367188 -11.03125 6.199219 -11.085938 6.070312 -11.214844 C 5.941406 -11.34375 5.886719 -11.511719 5.886719 -11.695312 L 5.886719 -17.671875 C 5.886719 -17.859375 5.8125 -18.023438 5.679688 -18.171875 C 5.535156 -18.320312 5.367188 -18.394531 5.164062 -18.394531 L 2.941406 -18.394531 C 2.738281 -18.394531 2.574219 -18.320312 2.425781 -18.171875 C 2.277344 -18.023438 2.222656 -17.859375 2.222656 -17.671875 L 2.222656 -0.722656 C 2.222656 -0.519531 2.277344 -0.351562 2.425781 -0.203125 C 2.574219 -0.0546875 2.738281 0 2.941406 0 L 5.164062 0 C 5.367188 0 5.535156 -0.0546875 5.679688 -0.203125 C 5.8125 -0.351562 5.886719 -0.519531 5.886719 -0.722656 L 5.886719 -6.699219 C 5.886719 -6.882812 5.941406 -7.03125 6.070312 -7.160156 C 6.199219 -7.292969 6.367188 -7.367188 6.550781 -7.367188 L 10.753906 -7.367188 C 10.9375 -7.367188 11.085938 -7.292969 11.214844 -7.160156 C 11.34375 -7.03125 11.417969 -6.882812 11.417969 -6.699219 L 11.417969 -0.722656 C 11.417969 -0.519531 11.472656 -0.351562 11.621094 -0.203125 C 11.769531 -0.0546875 11.9375 0 12.140625 0 L 14.359375 0 C 14.566406 0 14.730469 -0.0546875 14.878906 -0.203125 C 15.007812 -0.351562 15.082031 -0.519531 15.082031 -0.722656 L 15.082031 -17.671875 C 15.082031 -17.859375 15.007812 -18.023438 14.878906 -18.171875 C 14.730469 -18.320312 14.566406 -18.394531 14.359375 -18.394531 Z M 14.359375 -18.394531 "/></g></g></g><g fill="#5e17eb" fill-opacity="1"><g transform="translate(202.826122, 48.803762)"><g><path d="M 14.34375 -18.375 L 12.269531 -18.375 C 12.046875 -18.375 11.84375 -18.285156 11.695312 -18.136719 C 11.546875 -17.988281 11.472656 -17.804688 11.472656 -17.582031 L 11.472656 -5.976562 C 11.472656 -5.402344 11.324219 -4.960938 11.066406 -4.664062 C 10.808594 -4.347656 10.511719 -4.125 10.179688 -3.980469 C 9.84375 -3.832031 9.53125 -3.738281 9.234375 -3.703125 C 8.9375 -3.664062 8.753906 -3.664062 8.679688 -3.664062 C 8.605469 -3.664062 8.421875 -3.664062 8.125 -3.703125 C 7.828125 -3.738281 7.511719 -3.832031 7.179688 -3.980469 C 6.847656 -4.125 6.53125 -4.347656 6.273438 -4.664062 C 6.015625 -4.960938 5.886719 -5.402344 5.886719 -5.976562 L 5.886719 -17.582031 C 5.886719 -17.804688 5.792969 -17.988281 5.644531 -18.136719 C 5.496094 -18.285156 5.3125 -18.375 5.089844 -18.375 L 3.015625 -18.375 C 2.792969 -18.375 2.589844 -18.285156 2.441406 -18.136719 C 2.292969 -17.988281 2.222656 -17.804688 2.222656 -17.582031 L 2.222656 -5.976562 C 2.222656 -5.050781 2.386719 -4.199219 2.757812 -3.421875 C 3.128906 -2.644531 3.644531 -1.980469 4.347656 -1.425781 C 4.941406 -0.945312 5.609375 -0.59375 6.347656 -0.351562 C 7.089844 -0.09375 7.867188 0.0195312 8.679688 0.0195312 C 9.492188 0.0195312 10.269531 -0.09375 11.011719 -0.351562 C 11.75 -0.59375 12.417969 -0.945312 13.011719 -1.425781 C 13.695312 -1.980469 14.214844 -2.644531 14.582031 -3.421875 C 14.953125 -4.199219 15.136719 -5.050781 15.136719 -5.976562 L 15.136719 -17.582031 C 15.136719 -17.804688 15.046875 -17.988281 14.898438 -18.136719 C 14.75 -18.285156 14.566406 -18.375 14.34375 -18.375 Z M 14.34375 -18.375 "/></g></g></g><g fill="#5e17eb" fill-opacity="1"><g transform="translate(219.091692, 48.803762)"><g><path d="M 15.546875 -0.832031 L 10.621094 -17.878906 C 10.566406 -18.023438 10.476562 -18.136719 10.363281 -18.246094 C 10.234375 -18.339844 10.085938 -18.394531 9.9375 -18.394531 L 6.738281 -18.394531 C 6.570312 -18.394531 6.421875 -18.339844 6.3125 -18.246094 C 6.179688 -18.136719 6.089844 -18.023438 6.050781 -17.878906 L 1.128906 -0.832031 C 1.054688 -0.609375 1.09375 -0.425781 1.238281 -0.257812 C 1.371094 -0.0742188 1.535156 0 1.757812 0 L 4.183594 0 C 4.332031 0 4.480469 -0.0351562 4.609375 -0.128906 C 4.71875 -0.222656 4.8125 -0.351562 4.867188 -0.519531 L 5.664062 -3.332031 C 5.699219 -3.480469 5.792969 -3.589844 5.921875 -3.683594 C 6.03125 -3.773438 6.179688 -3.832031 6.347656 -3.832031 L 10.328125 -3.832031 C 10.476562 -3.832031 10.621094 -3.773438 10.753906 -3.683594 C 10.863281 -3.589844 10.957031 -3.480469 11.011719 -3.332031 L 11.824219 -0.519531 C 11.863281 -0.351562 11.957031 -0.222656 12.085938 -0.128906 C 12.195312 -0.0351562 12.34375 0 12.511719 0 L 14.917969 0 C 15.136719 0 15.304688 -0.0742188 15.433594 -0.257812 C 15.5625 -0.425781 15.601562 -0.609375 15.546875 -0.832031 Z M 9.550781 -7.496094 L 7.125 -7.496094 C 7.050781 -7.496094 7.015625 -7.511719 6.976562 -7.570312 C 6.941406 -7.605469 6.921875 -7.660156 6.941406 -7.734375 L 8.160156 -11.9375 C 8.179688 -12.027344 8.234375 -12.085938 8.347656 -12.085938 C 8.4375 -12.085938 8.496094 -12.027344 8.53125 -11.9375 L 9.734375 -7.734375 C 9.753906 -7.660156 9.734375 -7.605469 9.699219 -7.570312 C 9.660156 -7.511719 9.605469 -7.496094 9.550781 -7.496094 Z M 9.550781 -7.496094 "/></g></g></g><g fill="#5e17eb" fill-opacity="1"><g transform="translate(234.672581, 48.803762)"><g><path d="M 15.546875 -0.832031 L 10.621094 -17.878906 C 10.566406 -18.023438 10.476562 -18.136719 10.363281 -18.246094 C 10.234375 -18.339844 10.085938 -18.394531 9.9375 -18.394531 L 6.738281 -18.394531 C 6.570312 -18.394531 6.421875 -18.339844 6.3125 -18.246094 C 6.179688 -18.136719 6.089844 -18.023438 6.050781 -17.878906 L 1.128906 -0.832031 C 1.054688 -0.609375 1.09375 -0.425781 1.238281 -0.257812 C 1.371094 -0.0742188 1.535156 0 1.757812 0 L 4.183594 0 C 4.332031 0 4.480469 -0.0351562 4.609375 -0.128906 C 4.71875 -0.222656 4.8125 -0.351562 4.867188 -0.519531 L 5.664062 -3.332031 C 5.699219 -3.480469 5.792969 -3.589844 5.921875 -3.683594 C 6.03125 -3.773438 6.179688 -3.832031 6.347656 -3.832031 L 10.328125 -3.832031 C 10.476562 -3.832031 10.621094 -3.773438 10.753906 -3.683594 C 10.863281 -3.589844 10.957031 -3.480469 11.011719 -3.332031 L 11.824219 -0.519531 C 11.863281 -0.351562 11.957031 -0.222656 12.085938 -0.128906 C 12.195312 -0.0351562 12.34375 0 12.511719 0 L 14.917969 0 C 15.136719 0 15.304688 -0.0742188 15.433594 -0.257812 C 15.5625 -0.425781 15.601562 -0.609375 15.546875 -0.832031 Z M 9.550781 -7.496094 L 7.125 -7.496094 C 7.050781 -7.496094 7.015625 -7.511719 6.976562 -7.570312 C 6.941406 -7.605469 6.921875 -7.660156 6.941406 -7.734375 L 8.160156 -11.9375 C 8.179688 -12.027344 8.234375 -12.085938 8.347656 -12.085938 C 8.4375 -12.085938 8.496094 -12.027344 8.53125 -11.9375 L 9.734375 -7.734375 C 9.753906 -7.660156 9.734375 -7.605469 9.699219 -7.570312 C 9.660156 -7.511719 9.605469 -7.496094 9.550781 -7.496094 Z M 9.550781 -7.496094 "/></g></g></g></svg>